<svg width="636" height="165" viewBox="0 0 636 165" fill="none" xmlns="http://www.w3.org/2000/svg">
<path d="M111.463 113.502C112.715 90.9678 123.982 45.8987 128.99 34.6314C133.997 24.6161 144.013 12.0969 151.524 15.8526C159.036 19.6084 159.036 33.3795 151.524 49.6545C144.013 65.9294 141.509 99.7313 149.02 113.502C156.532 127.273 165.295 158.572 144.013 162.327C122.73 166.083 110.211 136.037 111.463 113.502Z" fill="black" stroke="black" stroke-width="3"/>
<path d="M18.7634 21.1058C11.2519 37.3807 16.2596 57.4115 20.0153 71.1826C21.9704 78.6943 25.023 89.9612 22.5192 106.236C20.0154 122.511 10 133.778 10 147.549C10 161.321 25.023 161.321 37.5422 158.817C50.0614 156.313 57.573 158.817 80.1075 161.321C102.642 163.824 107.65 137.534 93.8786 125.015C80.1075 112.496 60.0768 120.007 47.5576 126.267C35.0384 132.526 45.0538 112.496 48.8095 96.2207C52.5653 79.9458 55.0691 48.648 48.8095 32.3731C42.5499 16.0981 26.2749 4.83082 18.7634 21.1058Z" fill="black" stroke="black" stroke-width="3"/>
<path d="M301.838 28.3655C295.579 37.1289 295.579 50.9001 300.586 75.9385C305.594 116 298.082 114.748 295.579 134.778C293.075 154.809 314.357 166.076 333.136 161.069C351.915 156.061 350.663 162.321 365.686 162.321C380.709 162.321 386.969 147.298 379.457 134.778C371.946 122.259 359.427 121.007 348.159 126.015C336.892 131.023 334.388 131.023 329.38 131.023C324.373 131.023 325.625 117.252 326.877 112.244C328.129 107.236 344.404 107.236 355.671 99.7247C366.938 92.2132 373.198 84.7017 366.938 77.1902C360.678 69.6786 351.915 70.9306 345.655 75.9385C339.396 80.9464 333.136 84.7017 330.632 84.7017C328.129 84.7017 324.373 70.9306 324.373 62.1671C324.373 53.4037 325.625 49.6479 329.38 47.1441C333.136 44.6402 341.9 47.1441 354.419 47.1441C366.938 47.1441 379.457 44.6402 379.457 33.373C379.457 22.1057 368.19 18.3499 359.427 18.3499C350.663 18.3499 345.655 23.3578 333.136 19.6021C320.617 15.8463 308.098 19.6021 301.838 28.3655Z" fill="black" stroke="black" stroke-width="3"/>
<path d="M183.115 62.4229C184.288 85.7137 183.115 109.004 177.248 125.308C172.219 139.282 169.034 155.586 187.809 157.915C206.584 160.244 212.451 146.27 212.451 131.131V85.7137C220.665 124.143 246.48 160.244 265.255 155.586C284.03 150.928 273.469 95.03 273.469 79.891C273.469 64.752 286.377 51.942 286.377 37.9676C286.377 23.9931 273.469 18.1704 259.388 23.9931C245.307 29.8158 246.48 56.6002 246.48 72.9037C246.48 89.2073 234.746 67.081 232.399 57.7647C230.052 48.4484 223.012 18.1704 204.237 18.1704C185.462 18.1704 181.941 39.1321 183.115 62.4229Z" fill="black" stroke="black" stroke-width="3"/>
<path fill-rule="evenodd" clip-rule="evenodd" d="M536.171 56.3877C539.886 74.9614 543.601 97.2498 539.886 117.062C539.63 118.426 539.38 119.744 539.138 121.018C535.871 138.238 534.121 147.462 539.886 156.685C546.077 166.591 570.842 164.115 574.557 149.256C577.528 137.369 577.446 120.364 577.033 113.347C595.607 105.092 633.002 83.1338 633.992 61.3407C635.231 34.0994 610.466 11.811 573.318 13.0492C536.171 14.2875 532.456 29.146 536.171 56.3877ZM572.456 59.645C570.514 53.3665 567.236 42.7671 574.557 42.7671C583.224 42.7671 591.892 47.72 591.892 55.1495C591.892 62.5789 581.986 72.4849 578.271 73.7231C575.457 74.6612 574.775 70.6244 574.071 66.4586C573.846 65.1257 573.619 63.7795 573.318 62.5789C573.126 61.8092 572.814 60.8002 572.456 59.645Z" fill="black"/>
<path d="M539.886 117.062L538.412 116.785H538.412L539.886 117.062ZM536.171 56.3877L534.685 56.5904L534.691 56.6364L534.7 56.6819L536.171 56.3877ZM539.138 121.018L537.665 120.738H537.665L539.138 121.018ZM539.886 156.685L538.614 157.48H538.614L539.886 156.685ZM574.557 149.256L573.101 148.892L574.557 149.256ZM577.033 113.347L576.424 111.976L575.475 112.398L575.536 113.435L577.033 113.347ZM633.992 61.3407L632.494 61.2726L633.992 61.3407ZM573.318 13.0492L573.368 14.5484L573.318 13.0492ZM572.456 59.645L571.023 60.0882V60.0882L572.456 59.645ZM578.271 73.7231L577.797 72.3001L578.271 73.7231ZM574.071 66.4586L572.592 66.7085V66.7085L574.071 66.4586ZM573.318 62.5789L571.863 62.9428L573.318 62.5789ZM541.36 117.338C545.135 97.2068 541.354 74.6535 537.642 56.0936L534.7 56.6819C538.418 75.2693 542.066 97.2927 538.412 116.785L541.36 117.338ZM540.612 121.297C540.854 120.024 541.104 118.705 541.36 117.338L538.412 116.785C538.156 118.148 537.906 119.464 537.665 120.738L540.612 121.297ZM541.158 155.89C535.766 147.263 537.311 138.699 540.612 121.297L537.665 120.738C534.432 137.778 532.477 147.661 538.614 157.48L541.158 155.89ZM573.101 148.892C571.447 155.508 565.026 159.591 557.903 160.778C554.379 161.365 550.814 161.211 547.805 160.351C544.785 159.488 542.449 157.956 541.158 155.89L538.614 157.48C540.419 160.368 543.5 162.241 546.981 163.235C550.472 164.233 554.492 164.388 558.397 163.737C566.133 162.448 573.951 157.863 576.012 149.62L573.101 148.892ZM575.536 113.435C575.946 120.412 576.016 137.232 573.101 148.892L576.012 149.62C579.04 137.506 578.946 120.316 578.531 113.259L575.536 113.435ZM632.494 61.2726C632.265 66.3082 629.922 71.4803 626.086 76.6003C622.257 81.711 617.017 86.6648 611.181 91.2401C599.507 100.391 585.628 107.885 576.424 111.976L577.642 114.718C587.011 110.554 601.117 102.941 613.032 93.6011C618.989 88.9308 624.445 83.793 628.487 78.3992C632.521 73.0148 635.224 67.2697 635.491 61.4088L632.494 61.2726ZM573.368 14.5484C609.952 13.3289 633.679 35.1882 632.494 61.2726L635.491 61.4088C636.782 33.0105 610.979 10.293 573.268 11.5501L573.368 14.5484ZM537.657 56.1851C535.795 42.5277 535.916 32.5703 540.649 25.8291C545.324 19.1712 554.884 15.1645 573.368 14.5484L573.268 11.5501C554.606 12.1721 543.735 16.2139 538.194 24.1052C532.712 31.9133 532.833 43.0061 534.685 56.5904L537.657 56.1851ZM574.557 41.2671C572.31 41.2671 570.615 42.1159 569.6 43.7185C568.663 45.1968 568.456 47.0904 568.534 48.9158C568.692 52.5837 570.069 57.0032 571.023 60.0882L573.889 59.2017C572.902 56.0082 571.669 51.9888 571.532 48.7873C571.463 47.1781 571.687 46.0294 572.134 45.3241C572.502 44.7431 573.142 44.2671 574.557 44.2671V41.2671ZM593.392 55.1495C593.392 50.7859 590.835 47.2762 587.307 44.9241C583.783 42.5752 579.153 41.2671 574.557 41.2671V44.2671C578.628 44.2671 582.665 45.4354 585.643 47.4203C588.615 49.4021 590.392 52.0836 590.392 55.1495H593.392ZM578.746 75.1462C579.955 74.7432 581.449 73.7372 582.932 72.4919C584.456 71.2118 586.106 69.5599 587.631 67.7133C589.155 65.8685 590.58 63.7984 591.631 61.6774C592.674 59.5695 593.392 57.3221 593.392 55.1495H590.392C590.392 56.6916 589.872 58.4685 588.942 60.3462C588.019 62.2108 586.735 64.0876 585.318 65.8027C583.903 67.516 582.38 69.0372 581.002 70.1948C579.582 71.3873 578.446 72.0839 577.797 72.3001L578.746 75.1462ZM572.592 66.7085C572.932 68.7212 573.304 70.9824 574.003 72.5997C574.355 73.415 574.873 74.2738 575.699 74.8204C576.612 75.4252 577.676 75.5029 578.746 75.1462L577.797 72.3001C577.46 72.4124 577.383 72.3373 577.355 72.3189C577.239 72.2422 577.015 72.0073 576.757 71.41C576.235 70.2019 575.914 68.3618 575.55 66.2087L572.592 66.7085ZM571.863 62.9428C572.147 64.0762 572.365 65.3619 572.592 66.7085L575.55 66.2087C575.327 64.8894 575.091 63.4829 574.774 62.2151L571.863 62.9428ZM571.023 60.0882C571.386 61.2594 571.683 62.2225 571.863 62.9428L574.774 62.2151C574.569 61.396 574.242 60.3411 573.889 59.2017L571.023 60.0882Z" fill="black"/>
<path d="M422.037 101.5C422.037 86.1965 421.839 75.9756 415.626 45.3687C409.414 14.7618 451.501 14.9411 449.514 40.4716C448.384 55 442.368 73.6639 448.386 99.237C457.037 136 482.955 128.344 486.037 118C493.037 94.5 484.252 69.2421 478.039 45.3687C471.826 21.4953 488.742 20 500.039 20C511.335 20 519.438 25 516.539 52.5C514.279 73.9249 521.972 85.5237 522.537 104.5C523.101 123.476 511.037 163.154 463.831 159.175C419.537 155.441 422.037 116.803 422.037 101.5Z" fill="black" stroke="black" stroke-width="3"/>
<path d="M103.463 102.502C104.715 79.9678 115.982 34.8987 120.99 23.6314C125.997 13.6161 136.013 1.09687 143.524 4.85263C151.036 8.60839 151.036 22.3795 143.524 38.6545C136.013 54.9294 133.509 88.7313 141.02 102.502C148.532 116.273 157.295 147.572 136.013 151.327C114.73 155.083 102.211 125.037 103.463 102.502Z" fill="#01C2C1" stroke="black" stroke-width="3"/>
<path d="M10.7634 10.1058C3.25189 26.3807 8.25957 46.4115 12.0153 60.1826C13.9704 67.6943 17.023 78.9612 14.5192 95.2361C12.0154 111.511 2 122.778 2 136.549C2 150.321 17.023 150.321 29.5422 147.817C42.0614 145.313 49.573 147.817 72.1075 150.321C94.6421 152.824 99.6498 126.534 85.8786 114.015C72.1075 101.496 52.0768 109.007 39.5576 115.267C27.0384 121.526 37.0538 101.496 40.8095 85.2207C44.5653 68.9458 47.0691 37.648 40.8095 21.3731C34.5499 5.0981 18.2749 -6.16918 10.7634 10.1058Z" fill="#01C2C1" stroke="black" stroke-width="3"/>
<path d="M293.838 17.3655C287.579 26.1289 287.579 39.9001 292.586 64.9385C297.594 105 290.082 103.748 287.579 123.778C285.075 143.809 306.357 155.076 325.136 150.069C343.915 145.061 342.663 151.321 357.686 151.321C372.709 151.321 378.969 136.298 371.457 123.778C363.946 111.259 351.427 110.007 340.159 115.015C328.892 120.023 326.388 120.023 321.38 120.023C316.373 120.023 317.625 106.252 318.877 101.244C320.129 96.2362 336.404 96.2362 347.671 88.7247C358.938 81.2132 365.198 73.7017 358.938 66.1902C352.678 58.6786 343.915 59.9306 337.655 64.9385C331.396 69.9464 325.136 73.7017 322.632 73.7017C320.129 73.7017 316.373 59.9306 316.373 51.1671C316.373 42.4037 317.625 38.6479 321.38 36.1441C325.136 33.6402 333.9 36.1441 346.419 36.1441C358.938 36.1441 371.457 33.6402 371.457 22.373C371.457 11.1057 360.19 7.34991 351.427 7.34991C342.663 7.34991 337.655 12.3578 325.136 8.60206C312.617 4.8463 300.098 8.60206 293.838 17.3655Z" fill="#01C2C1" stroke="black" stroke-width="3"/>
<path d="M175.115 51.4229C176.288 74.7137 175.115 98.0044 169.248 114.308C164.219 128.282 161.034 144.586 179.809 146.915C198.584 149.244 204.451 135.27 204.451 120.131V74.7137C212.665 113.143 238.48 149.244 257.255 144.586C276.03 139.928 265.469 84.03 265.469 68.891C265.469 53.752 278.377 40.942 278.377 26.9676C278.377 12.9931 265.469 7.17041 251.388 12.9931C237.307 18.8158 238.48 45.6002 238.48 61.9037C238.48 78.2073 226.746 56.081 224.399 46.7647C222.052 37.4484 215.012 7.17041 196.237 7.17041C177.462 7.17041 173.941 28.1321 175.115 51.4229Z" fill="#01C2C1" stroke="black" stroke-width="3"/>
<path fill-rule="evenodd" clip-rule="evenodd" d="M528.171 45.3877C531.886 63.9614 535.601 86.2498 531.886 106.062C531.63 107.426 531.38 108.744 531.138 110.018C527.871 127.238 526.121 136.462 531.886 145.685C538.077 155.591 562.842 153.115 566.557 138.256C569.528 126.369 569.446 109.364 569.033 102.347C587.607 94.092 625.002 72.1338 625.992 50.3407C627.231 23.0994 602.466 0.810979 565.318 2.04922C528.171 3.28747 524.456 18.146 528.171 45.3877ZM564.456 48.645C562.514 42.3665 559.236 31.7671 566.557 31.7671C575.224 31.7671 583.892 36.72 583.892 44.1495C583.892 51.5789 573.986 61.4849 570.271 62.7231C567.457 63.6612 566.775 59.6244 566.071 55.4586C565.846 54.1257 565.619 52.7795 565.318 51.5789C565.126 50.8092 564.814 49.8002 564.456 48.645Z" fill="#01C2C1"/>
<path d="M531.886 106.062L530.412 105.785H530.412L531.886 106.062ZM528.171 45.3877L526.685 45.5904L526.691 45.6364L526.7 45.6819L528.171 45.3877ZM531.138 110.018L529.665 109.738H529.665L531.138 110.018ZM531.886 145.685L530.614 146.48H530.614L531.886 145.685ZM566.557 138.256L565.101 137.892L566.557 138.256ZM569.033 102.347L568.424 100.976L567.475 101.398L567.536 102.435L569.033 102.347ZM625.992 50.3407L624.494 50.2726L625.992 50.3407ZM565.318 2.04922L565.368 3.54839L565.318 2.04922ZM564.456 48.645L563.023 49.0882V49.0882L564.456 48.645ZM570.271 62.7231L569.797 61.3001L570.271 62.7231ZM566.071 55.4586L564.592 55.7085V55.7085L566.071 55.4586ZM565.318 51.5789L563.863 51.9428L565.318 51.5789ZM533.36 106.338C537.135 86.2068 533.354 63.6535 529.642 45.0936L526.7 45.6819C530.418 64.2693 534.066 86.2927 530.412 105.785L533.36 106.338ZM532.612 110.297C532.854 109.024 533.104 107.705 533.36 106.338L530.412 105.785C530.156 107.148 529.906 108.464 529.665 109.738L532.612 110.297ZM533.158 144.89C527.766 136.263 529.311 127.699 532.612 110.297L529.665 109.738C526.432 126.778 524.477 136.661 530.614 146.48L533.158 144.89ZM565.101 137.892C563.447 144.508 557.026 148.591 549.903 149.778C546.379 150.365 542.814 150.211 539.805 149.351C536.785 148.488 534.449 146.956 533.158 144.89L530.614 146.48C532.419 149.368 535.5 151.241 538.981 152.235C542.472 153.233 546.492 153.388 550.397 152.737C558.133 151.448 565.951 146.863 568.012 138.62L565.101 137.892ZM567.536 102.435C567.946 109.412 568.016 126.232 565.101 137.892L568.012 138.62C571.04 126.506 570.946 109.316 570.531 102.259L567.536 102.435ZM624.494 50.2726C624.265 55.3082 621.922 60.4803 618.086 65.6003C614.257 70.711 609.017 75.6648 603.181 80.2401C591.507 89.3913 577.628 96.8853 568.424 100.976L569.642 103.718C579.011 99.5536 593.117 91.941 605.032 82.6011C610.989 77.9308 616.445 72.793 620.487 67.3992C624.521 62.0148 627.224 56.2697 627.491 50.4088L624.494 50.2726ZM565.368 3.54839C601.952 2.32893 625.679 24.1882 624.494 50.2726L627.491 50.4088C628.782 22.0105 602.979 -0.706976 565.268 0.550055L565.368 3.54839ZM529.657 45.1851C527.795 31.5277 527.916 21.5703 532.649 14.8291C537.324 8.17118 546.884 4.16454 565.368 3.54839L565.268 0.550055C546.606 1.17215 535.735 5.21391 530.194 13.1052C524.712 20.9133 524.833 32.0061 526.685 45.5904L529.657 45.1851ZM566.557 30.2671C564.31 30.2671 562.615 31.1159 561.6 32.7185C560.663 34.1968 560.456 36.0904 560.534 37.9158C560.692 41.5837 562.069 46.0032 563.023 49.0882L565.889 48.2017C564.902 45.0082 563.669 40.9888 563.532 37.7873C563.463 36.1781 563.687 35.0294 564.134 34.3241C564.502 33.7431 565.142 33.2671 566.557 33.2671V30.2671ZM585.392 44.1495C585.392 39.7859 582.835 36.2762 579.307 33.9241C575.783 31.5752 571.153 30.2671 566.557 30.2671V33.2671C570.628 33.2671 574.665 34.4354 577.643 36.4203C580.615 38.4021 582.392 41.0836 582.392 44.1495H585.392ZM570.746 64.1462C571.955 63.7432 573.449 62.7372 574.932 61.4919C576.456 60.2118 578.106 58.5599 579.631 56.7133C581.155 54.8685 582.58 52.7984 583.631 50.6774C584.674 48.5695 585.392 46.3221 585.392 44.1495H582.392C582.392 45.6916 581.872 47.4685 580.942 49.3462C580.019 51.2108 578.735 53.0876 577.318 54.8027C575.903 56.516 574.38 58.0372 573.002 59.1948C571.582 60.3873 570.446 61.0839 569.797 61.3001L570.746 64.1462ZM564.592 55.7085C564.932 57.7212 565.304 59.9824 566.003 61.5997C566.355 62.415 566.873 63.2738 567.699 63.8204C568.612 64.4252 569.676 64.5029 570.746 64.1462L569.797 61.3001C569.46 61.4124 569.383 61.3373 569.355 61.3189C569.239 61.2422 569.015 61.0073 568.757 60.41C568.235 59.2019 567.914 57.3618 567.55 55.2087L564.592 55.7085ZM563.863 51.9428C564.147 53.0762 564.365 54.3619 564.592 55.7085L567.55 55.2087C567.327 53.8894 567.091 52.4829 566.774 51.2151L563.863 51.9428ZM563.023 49.0882C563.386 50.2594 563.683 51.2225 563.863 51.9428L566.774 51.2151C566.569 50.396 566.242 49.3411 565.889 48.2017L563.023 49.0882Z" fill="black"/>
<path d="M414.037 90.5C414.037 75.1965 413.839 64.9756 407.626 34.3687C401.414 3.76183 443.501 3.94109 441.514 29.4716C440.384 44 434.368 62.6639 440.386 88.237C449.037 125 474.955 117.344 478.037 107C485.037 83.5 476.252 58.2421 470.039 34.3687C463.826 10.4953 480.742 9 492.039 9C503.335 9 511.438 14 508.539 41.5C506.279 62.9249 513.972 74.5237 514.537 93.5C515.101 112.476 503.037 152.154 455.831 148.175C411.537 144.441 414.037 105.803 414.037 90.5Z" fill="#01C2C1" stroke="black" stroke-width="3"/>
</svg>
