<svg xmlns="http://www.w3.org/2000/svg" viewBox="0 0 383.71 389.67"><defs><style>.cls-1{stroke:#000;}.cls-1,.cls-3,.cls-4,.cls-5{stroke-linecap:round;stroke-linejoin:round;stroke-width:2px;}.cls-2{font-size:67.02px;fill:#fff;font-family:CooperBlack, Cooper Black;}.cls-3{fill:#ed4967;}.cls-3,.cls-4,.cls-5{stroke:#b21e36;}.cls-4{fill:none;}.cls-5{fill:#b21e36;}</style></defs><title>임시손</title><g id="Layer_2" data-name="Layer 2"><g id="Layer_3" data-name="Layer 3"><circle class="cls-1" cx="193" cy="195.43" r="184.87"/><text class="cls-2" transform="translate(76.61 193.57) rotate(-70.97)">C</text><text class="cls-2" transform="matrix(0.55, -0.83, 0.83, 0.55, 92.52, 150.97)">l</text><text class="cls-2" transform="translate(104.98 132.03) rotate(-47.38)">i</text><text class="cls-2" transform="translate(119.19 115.48) rotate(-35.47)">c</text><text class="cls-2" transform="translate(144.5 95.64) rotate(-18.87)">k</text><text class="cls-2" transform="matrix(0.53, -0.85, 0.85, 0.53, 118.56, 212.37)">m</text><text class="cls-2" transform="translate(152.28 161.63) rotate(-38.41)">e</text><text class="cls-2" transform="matrix(0.89, -0.46, 0.46, 0.89, 178.79, 141.25)">!</text><text class="cls-2" transform="translate(195.68 132.36) rotate(-19.23)">!</text><path class="cls-3" d="M336.75,212.64a245.4,245.4,0,0,0-14.23-33.25,19.32,19.32,0,0,0-2.95-4.55c-3.21-3.36-8.12-3.88-12.72-4-.49-1.29-1-2.58-1.49-3.87-1.53-3.87-3.17-7.78-5.89-10.88s-6.72-5.3-10.75-4.77c-3.24.42-6,2.47-8.56,4.58-.42-1.29-.85-2.58-1.29-3.86-1.66-4.92-3.86-10.32-8.61-12.4-5-2.18-10.67.28-15,3.82a269.88,269.88,0,0,1,5.64-62.49c.92-4.39,1.95-8.9,1.15-13.31s-4-8.74-8.45-9.31a10.43,10.43,0,0,0-8.17,3,25.31,25.31,0,0,0-5.06,7.38c-7.2,14.28-10.67,30.16-12.8,46-2.05,15.27-2,32-3.63,47.29-.32,3-.26,13.44-1.41,16.34-.32.2-7.53-11.92-12.14-11-8.15,1.56-16.87-5.82-24.32-2.15-2.38,1.17-4.12,3.31-5.69,5.45a90.56,90.56,0,0,0-10.78,19.26,26.26,26.26,0,0,0-2.19,8,29.51,29.51,0,0,0,.95,8.29q2.85,13.38,6.37,26.6l.06-.09c.35,1.33.77,2.65,1.22,3.94,6.26,17.77,19,32.52,26.57,49.78,3,6.73,5.34,14.17,11,18.82.12.1.25.18.37.27a63,63,0,0,1,7.37,26.31c.12,2.14.19,4.48,1.62,6.07a8.11,8.11,0,0,0,2.68,1.78,68.23,68.23,0,0,0,46.68,4.44c11.72-3.1,23.47-10.6,26.49-22.33a46.63,46.63,0,0,0,1.07-9.73l.33-8.63a47.42,47.42,0,0,0,3.17-5.49l29.51-57.11c2.45-4.75,4.94-9.59,5.89-14.85C339.59,221.42,339.11,216.49,336.75,212.64Zm-119,.5c-.87,2-3.47,5.68-4.34,7.69-1.15,0-5.52-4.47-6.7-9.66-1.51-6.61-2.18-13.44-5.31-19.45l-.71-1.19c3.09,2.77,2.31,1.33,9.29,5.3,1.27.72,4.79,2.61,6.44,2.63,5.19.07,5.66-3.39,4.87,2.51A45.45,45.45,0,0,1,217.79,213.14Z"/><path class="cls-4" d="M223.19,175.81c-1.39,12.42-.39,21.09-3.11,31.24-1.57,5.86-7.72,17.64-11.81,22.12"/><path class="cls-4" d="M255.47,141.93c-.44,4.42.19,8.86.83,13.26l.95,6.55a50,50,0,0,0,1.07,5.82,51.36,51.36,0,0,0,2.37,6.52L270.21,197"/><path class="cls-4" d="M280,156.49c4.18,16.12,12.93,30.57,19.25,46"/><path class="cls-4" d="M306.76,171.17q6.4,17.4,13.22,34.63"/><path class="cls-5" d="M259.26,43.21c-1.46-.62-4.06,4.94-4.47,6.29q-2.64,8.82-5.29,17.64a23,23,0,0,0-1.17,5.61,7.55,7.55,0,0,0,1.61,5.32c1.61,1.78,4.09,2.07,6.36,2.27a2.25,2.25,0,0,0,1.47-.22,2.68,2.68,0,0,0,.81-1.6,111.54,111.54,0,0,0,3.1-24.71C261.71,51.28,261.41,44.12,259.26,43.21Z"/><path class="cls-4" d="M250.25,95.9a14.83,14.83,0,0,1,6.66.17"/><path class="cls-4" d="M251.83,100l2.84.32"/><path class="cls-4" d="M245.5,132.86a16.88,16.88,0,0,1,7.25,1"/><path class="cls-4" d="M248,142.69a13.49,13.49,0,0,1,6,.57"/><path class="cls-4" d="M244.24,138.27a22.32,22.32,0,0,1,10.77.52"/><path class="cls-4" d="M195,185.85c5.39.9,9,11.42,9.69,15.33"/><path class="cls-4" d="M265.89,144.17a74.37,74.37,0,0,1,10.48,1.11"/></g></g></svg>