<svg width="295" height="54" viewBox="0 0 295 54" fill="none" xmlns="http://www.w3.org/2000/svg">
<path fill-rule="evenodd" clip-rule="evenodd" d="M8.75975 7.05912C4.95836 10.5451 2.15823 15.1055 0.840419 20.2591L8.75975 27.6505V7.05912ZM0.201266 23.6567C0.068403 24.7427 0 25.8487 0 26.9706C0 34.8517 3.37555 41.9445 8.75975 46.882V31.6446L0.201266 23.6567ZM11.6797 49.2111C15.66 51.9598 20.4144 53.6676 25.5494 53.9411V47.315L11.6797 34.3699V49.2111ZM28.4693 53.9411C33.6043 53.6676 38.3587 51.9598 42.339 49.2111V35.1576L28.4693 47.3411V53.9411ZM45.2589 46.882C50.6431 41.9446 54.0187 34.8518 54.0187 26.9706C54.0187 26.2951 53.9939 25.6254 53.9452 24.9623L45.2589 32.5926V46.882ZM53.4641 21.4984C52.2991 15.8368 49.3623 10.822 45.2589 7.05908V28.7061L53.4641 21.4984ZM42.339 4.73003C38.3587 1.98131 33.6043 0.273526 28.4693 2.24449e-06V17.1748L42.339 4.99129V4.73003ZM25.5494 0C20.5826 0.264559 15.9719 1.87099 12.0733 4.46334L25.5494 17.0411V0ZM25.5494 43.3208L11.6797 30.3758V8.09013L25.5494 21.0352V43.3208ZM42.339 31.271L28.4693 43.4546V21.0613L42.339 8.8778V31.271Z" fill="white"/>
<path d="M75 40.5359L78.3507 12.0451H84.8915L94.442 30.6243L103.832 12.0451H110.373L113.483 40.5359H105.738L104.243 27.3639L96.8898 40.5359H91.2719L83.9586 27.5646L82.3434 40.5359H75Z" fill="white"/>
<path d="M124.594 19.9102V40.5359H117.131V19.9102H124.594ZM120.822 18.3452C119.431 18.3452 118.321 17.9305 117.492 17.1012C116.662 16.2452 116.248 15.2286 116.248 14.0515C116.248 12.8744 116.649 11.8712 117.452 11.0419C118.281 10.1858 119.405 9.75781 120.822 9.75781C122.24 9.75781 123.35 10.1858 124.153 11.0419C124.982 11.8712 125.397 12.8744 125.397 14.0515C125.397 15.2286 124.982 16.2452 124.153 17.1012C123.35 17.9305 122.24 18.3452 120.822 18.3452Z" fill="white"/>
<path d="M128.368 40.5359V19.9102H135.792L135.511 23.8026C136.367 22.4917 137.41 21.4752 138.641 20.7529C139.898 20.0038 141.289 19.6293 142.814 19.6293C145.355 19.6293 147.268 20.4853 148.552 22.1975C149.836 23.8828 150.465 26.3841 150.438 29.7014L150.358 40.5359H142.894L142.975 30.1027C142.975 27.695 142.185 26.4911 140.607 26.4911C139.965 26.4911 139.363 26.7052 138.801 27.1332C138.239 27.5345 137.745 28.2568 137.316 29.3001C136.888 30.3167 136.541 31.7479 136.273 33.5938C136.006 35.4129 135.845 37.727 135.792 40.5359H128.368Z" fill="white"/>
<path d="M189.86 40.5359H181.995V12.0451H192.789C197.203 12.0451 200.454 12.8477 202.54 14.4528C204.654 16.0311 205.71 18.3452 205.71 21.3949C205.71 23.4281 205.162 25.1803 204.065 26.6517C202.968 28.123 201.417 29.26 199.41 30.0625C197.404 30.8383 195.01 31.2262 192.227 31.2262H189.86V40.5359ZM193.03 18.5057H189.86V24.7255H192.629C194.287 24.7255 195.545 24.4714 196.401 23.9631C197.284 23.4548 197.725 22.6255 197.725 21.4752C197.725 20.4586 197.35 19.7095 196.601 19.228C195.852 18.7465 194.662 18.5057 193.03 18.5057Z" fill="white"/>
<path d="M227.935 20.0707V40.5359H220.511L220.712 37.6066C219.347 39.8537 217.247 40.9773 214.412 40.9773C211.71 40.9773 209.556 40.0945 207.951 38.3289C206.346 36.5632 205.543 34.1422 205.543 31.0657C205.543 28.7651 206.025 26.7587 206.988 25.0465C207.978 23.3344 209.275 22.0102 210.88 21.0739C212.485 20.1108 214.211 19.6293 216.057 19.6293C217.475 19.6293 218.679 19.8834 219.668 20.3917C220.685 20.8732 221.474 21.5554 222.036 22.4382L222.638 20.0707H227.935ZM217.221 26.0497C215.99 26.0497 215.014 26.5179 214.291 27.4542C213.569 28.3638 213.208 29.4874 213.208 30.825C213.208 32.0288 213.489 32.9517 214.05 33.5938C214.612 34.2358 215.375 34.5569 216.338 34.5569C217.435 34.5569 218.384 34.1021 219.187 33.1925C220.016 32.2829 220.431 31.0925 220.431 29.6211C220.431 28.5243 220.137 27.6549 219.548 27.0128C218.986 26.3708 218.21 26.0497 217.221 26.0497Z" fill="white"/>
<path d="M231.697 48.5615V19.9102H239.161L238.92 22.9599C240.285 20.7395 242.385 19.6293 245.22 19.6293C247.922 19.6293 250.076 20.5121 251.681 22.2777C253.286 24.0433 254.089 26.4644 254.089 29.5409C254.089 31.8415 253.594 33.8479 252.604 35.5601C251.641 37.2722 250.357 38.6098 248.752 39.5728C247.173 40.5092 245.448 40.9773 243.575 40.9773C241.783 40.9773 240.298 40.576 239.121 39.7735L239.161 40.5359V48.5615H231.697ZM242.411 34.5569C243.669 34.5569 244.645 34.1021 245.341 33.1925C246.063 32.2562 246.424 31.1192 246.424 29.7816C246.424 28.5778 246.143 27.6549 245.582 27.0128C245.02 26.3708 244.257 26.0497 243.294 26.0497C242.224 26.0497 241.275 26.5045 240.445 27.4141C239.616 28.2969 239.201 29.4874 239.201 30.9855C239.201 32.0555 239.482 32.925 240.044 33.5938C240.632 34.2358 241.422 34.5569 242.411 34.5569Z" fill="white"/>
<path d="M267.281 40.9773C264.927 40.9773 262.881 40.5627 261.142 39.7334C259.403 38.8773 258.052 37.6601 257.089 36.0817C256.153 34.5033 255.684 32.6441 255.684 30.5039C255.684 28.337 256.153 26.4376 257.089 24.8058C258.052 23.1739 259.349 21.9032 260.981 20.9936C262.613 20.0841 264.432 19.6293 266.439 19.6293C268.9 19.6293 270.866 20.1643 272.337 21.2344C273.809 22.3045 274.812 23.7892 275.347 25.6886C275.909 27.5612 276.016 29.7281 275.668 32.1893H263.309C263.496 32.8581 263.978 33.4466 264.753 33.9549C265.529 34.4365 266.572 34.6772 267.883 34.6772C268.632 34.6772 269.341 34.5569 270.01 34.3161C270.706 34.0486 271.267 33.6874 271.695 33.2326L275.588 37.7671C274.839 38.6499 273.795 39.4123 272.458 40.0544C271.147 40.6697 269.422 40.9773 267.281 40.9773ZM266.76 24.886C265.93 24.886 265.221 25.1134 264.633 25.5682C264.044 26.023 263.643 26.665 263.429 27.4943H269.488C269.408 25.7555 268.499 24.886 266.76 24.886Z" fill="white"/>
<path d="M293.636 27.1733C293.047 26.9058 292.352 26.772 291.549 26.772C289.436 26.772 287.978 27.8822 287.175 30.1027C286.373 32.3231 285.971 35.8008 285.971 40.5359H278.548V27.1332L278.467 19.9102H285.891L285.57 25.2071C286.212 23.2809 287.135 21.8764 288.339 20.9936C289.543 20.0841 290.88 19.6293 292.352 19.6293C292.806 19.6293 293.234 19.656 293.636 19.7095C294.064 19.763 294.518 19.87 295 20.0306L293.636 27.1733Z" fill="white"/>
<path fill-rule="evenodd" clip-rule="evenodd" d="M164.019 15.9238H155.747V20.1353H152.288V26.1514H155.747V40.5897H164.019V26.1514H169.283V20.1353H164.019V15.9238Z" fill="white"/>
</svg>
