<svg width="49" height="304" viewBox="0 0 49 304" fill="none" xmlns="http://www.w3.org/2000/svg">
<path d="M24.5 304V51.5C24.5 50.3333 24.0689 48.3138 22.5 48C20 47.5 17.5 46.9 14 45.5C7.5 42.9 1 36 1 23C1 12 11 1 24.5 1C38 1 48.5 8.5 48.5 24C48.5 39.5 36.5 45 33.5 46.5C30.5 48 31 45.5 31 44C31 42.5 32 37 29.5 35C33 34.3333 40 31.6 40 26C40 20.4 38.3333 17.6667 37.5 17C37.8333 15.6667 38.3 12.6 37.5 11C36 10.8333 32.6 11 31 13C28.6667 12.6667 23 12.2 19 13C18 12.1667 15.3 10.5 12.5 10.5C12 12 11.3 15.4 12.5 17C11.6667 17.5 10 19.9 10 25.5C10 32.5 17.5 35 20.5 35C20.1667 35.6667 19.5 37.2 19.5 38C18.3333 38.6667 15.5 39.5 13.5 37.5C11 35 10.5 33.5 8 34C5.5 34.5 10 35 11 38.5C12 42 18 41.5 19 41.5" stroke="white"/>
</svg>
