<svg width="1660" height="132" viewBox="0 0 1660 132" fill="none" xmlns="http://www.w3.org/2000/svg">
<path d="M17.759 5.18722C-0.0351129 6.23393 1.01135 40.7749 1.0116 55.4293C1.01185 70.0837 2.05806 114.045 14.6186 122.418C30.3192 132.885 38.6929 121.372 38.6929 111.951C38.6929 104.415 33.1105 92.7615 30.3192 87.8768L40.7863 82.6433C41.1352 85.0856 42.4611 92.6917 44.9732 103.577C48.1133 117.185 63.814 134.979 75.3278 125.558C86.8416 116.138 80.5613 103.577 75.3278 91.0169C70.0942 78.4564 70.0942 53.3359 68.0008 31.3545C65.9074 9.37306 54.3936 5.18722 44.9732 12.5137C37.4369 18.3749 37.6462 39.3791 38.6929 49.1485L28.2258 53.3359C30.6682 36.9374 31.9942 4.34985 17.759 5.18722Z" stroke="white" stroke-width="2"/>
<path d="M108.822 19.8405C99.4017 36.5878 91.028 76.3628 91.028 100.437C91.028 111.951 87.8879 128.698 107.775 127.652C123.685 126.814 125.569 111.253 124.523 103.577L134.99 99.3906C136.385 108.811 142.945 127.861 158.017 128.698C176.858 129.745 178.952 112.998 174.765 99.3906C170.578 85.7834 155.924 42.8681 146.504 19.8405C137.083 -3.18716 118.243 3.0931 108.822 19.8405Z" stroke="white" stroke-width="2"/>
<path d="M122.43 56.4756C121.592 61.4999 122.081 71.1296 122.43 75.3164C128.71 77.41 127.663 70.0829 126.617 59.6158C125.57 49.1487 123.476 50.1954 122.43 56.4756Z" stroke="white" stroke-width="2"/>
<path d="M172.672 35.5412C166.392 15.6537 175.813 5.44926 185.233 3.09316C194.653 0.737068 205.12 10.4198 207.214 22.9803C209.307 35.5408 216.634 76.3625 219.774 77.4093C222.914 78.456 227.101 51.2418 230.241 38.6813C233.381 26.1208 237.568 2.04645 254.316 3.09316C271.063 4.13987 270.016 25.0741 267.923 35.5412C265.83 46.0083 251.176 69.0359 244.895 91.0168C238.615 112.998 236.522 129.745 219.774 128.698C203.027 127.652 198.84 114.044 195.7 97.2971C192.56 80.5497 178.952 55.4287 172.672 35.5412Z" stroke="white" stroke-width="2"/>
<path d="M282.576 73.2229C284.67 58.569 278.389 44.9617 277.343 33.4479C277.343 10.42 291.997 5.18701 299.324 5.18701C306.651 5.18701 312.931 7.28015 330.725 6.23344C348.519 5.18673 353.753 18.794 347.472 28.2144C341.192 37.6347 323.398 32.4012 312.931 32.4012C302.464 32.4012 306.651 48.1018 307.697 54.3821C308.744 60.6624 317.118 53.3354 321.305 50.1953C325.491 47.0551 339.099 46.0084 341.192 59.6157C343.286 73.2229 324.445 81.5966 313.978 83.69C303.511 85.7834 306.651 88.9235 306.651 94.1571C306.651 99.3906 310.837 96.2505 325.491 91.017C340.145 85.7834 351.659 97.2972 352.706 111.951C353.753 126.605 331.772 126.605 322.351 125.558C312.931 124.512 291.997 130.792 282.576 118.231C273.156 105.671 280.483 87.8768 282.576 73.2229Z" stroke="white" stroke-width="2"/>
<path d="M401.901 35.5416C395.621 51.2423 391.434 77.41 390.388 98.3442C389.641 108.811 386.201 127.652 406.088 127.652C421.998 127.652 424.58 111.603 423.882 103.578L434.349 99.3909C435.396 107.765 445.863 129.746 461.564 127.652C477.265 125.559 477.265 108.811 470.984 93.1107C464.704 77.41 456.33 53.3357 452.144 36.5883C447.957 19.841 438.536 5.18701 428.069 5.18701C417.602 5.18701 408.182 19.841 401.901 35.5416Z" stroke="white" stroke-width="2"/>
<path d="M422.836 53.3357C420.742 54.3824 420.742 67.9896 420.742 73.2232C420.741 74.6623 422.836 74.2699 424.929 74.2699C427.022 74.2699 428.069 70.0831 427.022 64.8495C425.976 59.616 424.929 52.289 422.836 53.3357Z" stroke="white" stroke-width="2"/>
<path d="M520.179 41.8219C521.226 62.7561 520.179 83.6903 514.946 98.3442C510.46 110.905 507.619 125.559 524.366 127.652C541.114 129.745 546.347 117.185 546.347 103.578V62.7561C553.674 97.2975 576.702 129.745 593.449 125.559C610.197 121.372 600.776 71.1297 600.776 57.5225C600.776 43.9153 612.29 32.4015 612.29 19.8409C612.29 7.28043 600.776 2.04688 588.216 7.28043C575.655 12.514 576.702 36.5883 576.702 51.2422C576.702 65.8962 566.235 46.0087 564.141 37.635C562.048 29.2613 555.768 2.04688 539.02 2.04688C522.273 2.04688 519.133 20.8877 520.179 41.8219Z" stroke="white" stroke-width="2"/>
<path d="M621.71 98.344C618.57 76.3631 624.85 50.1954 631.131 33.448C634.954 21.9342 642.644 2.04672 654.158 3.09343C665.672 4.14014 661.485 24.0276 656.252 38.6816C651.018 53.3355 651.018 74.2697 656.252 86.8302C661.485 99.3908 665.672 112.998 656.252 124.512C646.831 136.026 624.85 120.325 621.71 98.344Z" stroke="white" stroke-width="2"/>
<path d="M670.906 65.8959C672.999 20.8873 707.54 3.09326 719.054 3.09326C741.035 3.09326 749.409 17.7472 748.362 31.3544C747.315 44.9617 731.615 39.7281 725.335 37.6347C719.054 35.5413 713.821 32.4011 706.494 43.915C699.167 55.4288 697.073 91.0169 705.447 94.157C713.821 97.2972 713.821 91.0169 724.288 79.5031C734.755 67.9893 746.269 92.0636 747.315 103.577C748.362 115.091 736.848 131.839 713.821 130.792C690.793 129.745 668.812 110.904 670.906 65.8959Z" stroke="white" stroke-width="2"/>
<path d="M766.156 67.9893C766.156 56.4755 760.923 39.7281 760.923 30.3077C756.507 2.04655 793.371 6.23339 805.931 6.23339C818.492 6.23339 832.099 5.18668 833.146 19.8406C834.192 34.4946 815.351 36.588 800.697 33.4479C786.044 30.3077 790.23 44.9617 791.277 54.3821C792.324 63.8024 801.744 49.1485 808.024 49.1485C814.305 49.1485 825.819 49.1485 825.819 61.709C825.819 74.2695 799.651 83.6899 793.371 84.7366C787.09 85.7834 787.09 97.2972 790.23 98.3439C793.371 99.3906 801.744 92.0636 813.258 89.9702C824.772 87.8768 834.192 99.3906 836.286 109.858C838.379 120.325 831.052 126.605 823.725 127.652C816.398 128.698 808.024 123.465 791.277 126.605C774.53 129.745 761.969 118.231 760.923 104.624C759.876 91.0169 766.156 79.5031 766.156 67.9893Z" stroke="white" stroke-width="2"/>
<path d="M959.798 14.6072C946.19 18.794 931.536 12.5138 923.163 7.28024C911.649 1.62032 895.948 6.23353 896.995 19.8408C897.832 30.7265 916.185 42.5195 925.256 47.0552C925.605 54.3822 926.094 70.7109 925.256 77.4098C924.21 85.7835 905.369 123.465 928.396 127.652C951.424 131.839 953.517 105.671 954.564 88.9236C955.401 75.5257 954.215 55.4289 953.517 47.0552C968.171 44.9618 983.872 36.5881 983.872 25.0743C983.872 13.5605 973.405 10.4204 959.798 14.6072Z" stroke="white" stroke-width="2"/>
<path d="M995.386 82.6438C997.479 72.1767 991.199 43.9156 989.105 32.4018C987.703 25.0748 984.918 7.28071 1011.09 4.14058C1037.25 1.00045 1062.37 16.7011 1065.52 34.4952C1068.66 52.2892 1058.19 62.7563 1052.95 66.9432C1047.72 71.13 1060.28 80.5504 1067.61 88.9241C1074.94 97.2978 1078.08 120.325 1065.52 126.606C1052.95 132.886 1038.3 117.185 1035.16 102.531C1032.65 90.8082 1025.74 88.5752 1022.6 88.9241C1025.74 99.3912 1022.6 132.886 1001.67 127.652C980.732 122.419 993.292 93.1109 995.386 82.6438Z" stroke="white" stroke-width="2"/>
<path d="M1021.55 58.5694C1017.37 60.6629 1015.27 44.9622 1014.23 38.682C1014.23 29.2616 1028.88 35.5418 1033.07 38.682C1037.25 41.8221 1025.74 56.476 1021.55 58.5694Z" stroke="white" stroke-width="2"/>
<path d="M1081.22 84.7374C1081.22 62.7565 1091.68 31.3552 1095.87 20.8881C1108.43 -4.23295 1126.22 4.14073 1125.18 15.6545C1124.13 27.1683 1107.38 56.4758 1114.71 75.3166C1124.22 99.7632 1131.46 127.653 1111.57 127.653C1091.68 127.653 1081.22 106.718 1081.22 84.7374Z" stroke="white" stroke-width="2"/>
<path d="M1142.97 89.9701C1146.11 73.2228 1142.97 54.382 1139.83 38.6813C1136.69 15.6534 1139.83 3.0932 1171.23 2.04649C1202.63 0.999781 1223.57 19.8406 1222.52 42.8682C1221.68 61.2903 1190.07 79.8519 1174.37 86.83C1174.72 92.7614 1174.79 107.136 1172.28 117.185C1169.14 129.745 1148.21 131.839 1142.97 123.465C1137.74 115.091 1139.83 106.717 1142.97 89.9701Z" stroke="white" stroke-width="2"/>
<path d="M1172.28 27.1675C1164.95 27.1675 1170.19 39.728 1171.23 43.9148C1172.28 48.1017 1172.28 54.3819 1175.42 53.3352C1178.56 52.2885 1186.93 43.9148 1186.93 37.6346C1186.93 31.3543 1179.61 27.1675 1172.28 27.1675Z" stroke="white" stroke-width="2"/>
<path d="M1304.97 52.0028C1314.8 54.7403 1321.82 47.8965 1326.03 41.0528C1335.86 25.0837 1349.9 38.3152 1338.67 57.4778C1330.51 71.3878 1310.59 95.803 1303.57 101.278C1296.55 106.753 1293.74 121.809 1306.38 127.284C1319.01 132.759 1327.44 120.441 1335.86 119.072C1344.28 117.703 1351.31 123.178 1362.54 127.284C1373.77 131.391 1380.79 125.916 1382.19 119.072C1383.6 112.228 1382.19 101.278 1373.77 93.0654C1365.35 84.8529 1354.11 84.8529 1345.69 90.3279C1337.26 95.8029 1342.88 86.2217 1349.9 76.6404C1356.92 67.0591 1382.19 27.3649 1356.92 12.3087C1334.41 -1.10114 1313.4 6.83347 1302.16 16.4151C1289.26 27.4176 1295.14 49.2653 1304.97 52.0028Z" stroke="white" stroke-width="2"/>
<path d="M1491.28 52.0028C1501.11 54.7403 1508.13 47.8965 1512.35 41.0528C1522.17 25.0837 1536.21 38.3152 1524.98 57.4778C1516.83 71.3878 1496.9 95.803 1489.88 101.278C1482.86 106.753 1480.05 121.809 1492.69 127.284C1505.33 132.759 1513.75 120.441 1522.17 119.072C1530.6 117.703 1537.62 123.178 1548.85 127.284C1560.08 131.391 1567.1 125.916 1568.51 119.072C1569.91 112.228 1568.51 101.278 1560.08 93.0654C1551.66 84.8529 1540.43 84.8529 1532 90.3279C1523.58 95.8029 1529.19 86.2217 1536.21 76.6404C1543.24 67.0591 1568.51 27.3649 1543.24 12.3087C1520.73 -1.10114 1499.71 6.83347 1488.48 16.4151C1475.58 27.4176 1481.46 49.2653 1491.28 52.0028Z" stroke="white" stroke-width="2"/>
<path d="M1388.95 70.0255C1388.95 38.2852 1398.56 22.5386 1408.17 12.0655C1417.78 1.5923 1434.25 -4.49477 1450.72 7.92524C1467.19 20.3452 1472.69 32.7652 1472.69 61.7455C1472.69 86.7384 1456.21 126.605 1432.88 126.605C1409.5 126.605 1388.95 99.1366 1388.95 70.0255Z" stroke="white" stroke-width="2"/>
<path d="M1418.71 78.4373C1417.56 66.4497 1418.71 59.257 1421.02 49.6668C1426.79 29.2878 1438.34 31.6854 1440.65 43.673C1442.7 54.3175 1439.5 71.2447 1434.88 82.0336C1430.26 92.8225 1419.86 90.425 1418.71 78.4373Z" stroke="white" stroke-width="2"/>
<path d="M1591.57 43.225C1601.34 45.8961 1606.92 41.3553 1611.11 36.5474C1615.3 31.7395 1623.67 28.5344 1626.46 32.5409C1629.25 36.5474 1623.67 45.8961 1611.11 52.5737C1598.55 59.2514 1591.57 64.5934 1591.57 72.6066C1591.57 80.6197 1605.53 79.2842 1615.3 79.2842C1625.07 79.2842 1627.86 87.2973 1623.67 95.3104C1619.48 103.324 1606.92 104.659 1591.57 100.653C1576.22 96.646 1573.43 105.995 1576.22 112.672C1579.01 119.35 1591.57 128.698 1612.51 128.698C1633.44 128.698 1655.77 118.014 1658.56 96.646C1661.35 75.2776 1650.19 65.929 1643.21 63.2579C1636.23 60.5869 1633.44 57.9158 1636.23 56.5803C1639.02 55.2448 1652.98 47.2317 1652.98 37.883C1652.98 28.5344 1648.79 17.8501 1636.23 8.50146C1623.67 -0.847189 1599.95 3.15938 1588.78 11.1725C1577.62 19.1856 1581.8 40.554 1591.57 43.225Z" stroke="white" stroke-width="2"/>
</svg>
