<svg width="981" height="163" viewBox="0 0 981 163" fill="none" xmlns="http://www.w3.org/2000/svg">
<path d="M520.295 29.9657C504.02 33.7215 481.485 24.958 471.47 21.2023C446.432 12.4388 442.676 34.9734 451.439 43.7368C458.45 50.7476 474.391 60.0118 481.485 63.7675C482.737 73.3656 483.989 96.5678 478.982 112.592C472.722 132.623 467.714 163.921 487.745 162.669C507.776 161.417 511.531 127.615 511.531 111.34C511.531 98.3205 508.193 73.3656 506.524 62.5156C532.814 60.0118 546.585 49.9964 546.585 39.9811C546.585 29.9657 536.57 26.2099 520.295 29.9657Z" fill="#ED5029"/>
<path d="M117.176 113.845C118.428 91.31 129.696 46.2409 134.703 34.9736C139.711 24.9582 149.726 12.4391 157.238 16.1948C164.749 19.9506 164.749 33.7217 157.238 49.9967C149.726 66.2716 147.223 100.073 154.734 113.845C162.246 127.616 171.009 158.914 149.726 162.669C128.444 166.425 115.925 136.379 117.176 113.845Z" fill="#ED5029"/>
<path d="M194.796 39.9813C193.544 58.7601 196.047 96.3177 189.788 117.6C182.276 131.371 181.024 162.669 199.803 162.669C218.582 162.669 221.086 143.891 221.086 128.868C221.086 113.845 214.826 96.3177 214.826 75.035C214.826 53.7524 221.086 65.0197 223.59 81.2946C226.094 97.5696 233.605 126.364 239.865 143.891C246.124 161.417 259.895 156.41 264.903 137.631C269.911 118.852 276.17 90.0581 278.674 82.5465C281.178 75.035 288.69 86.3023 284.934 107.585C281.178 128.868 287.438 162.669 306.216 162.669C324.995 162.669 322.491 135.127 316.232 117.6C309.972 100.073 312.476 85.0504 313.728 55.0043C314.98 24.9582 304.964 18.6986 294.949 16.1948C284.934 13.691 269.911 16.1948 266.155 37.4774C262.399 58.76 256.14 73.7831 253.636 81.2946C251.132 88.8061 239.865 58.7601 236.109 37.4774C232.353 16.1948 222.338 14.9429 214.826 14.9429C207.315 14.9429 196.047 21.2025 194.796 39.9813Z" fill="#ED5029"/>
<path d="M70.8558 31.2179C57.0847 32.4699 53.3288 24.9583 44.5654 21.2025C37.0539 17.0255 15.7712 17.4463 18.275 33.7213C20.26 46.6239 41.6705 57.7238 53.0217 63.6085L53.3288 63.7678C53.7461 75.0351 53.5793 102.327 49.5732 116.349C44.5655 133.875 32.0463 162.67 55.8328 162.67C79.6193 162.67 80.8712 132.623 82.1231 111.341C83.1246 94.3147 80.0366 71.6967 78.3673 62.5159C98.3981 60.0121 117.177 51.2487 117.177 39.9814C117.177 28.7141 109.665 24.9583 102.154 26.2103C94.6423 27.4622 84.6269 29.966 70.8558 31.2179Z" fill="#ED5029"/>
<path d="M405.118 19.9506C390.095 21.2026 375.072 18.6987 366.309 18.6987C356.293 18.1438 346.278 26.2102 345.026 41.2333C343.774 56.2563 347.53 66.2717 350.034 82.5466C352.537 98.8216 348.782 112.593 343.774 125.112C338.766 137.631 346.278 153.906 357.545 160.166C368.812 166.425 383.835 156.41 403.866 160.166C423.897 163.921 428.905 155.158 430.156 147.646C431.408 140.135 426.401 131.372 418.889 126.364C411.378 121.356 400.11 125.112 393.851 127.616C387.591 130.12 372.568 133.875 372.568 125.112C372.568 118.101 375.072 112.175 376.324 110.089C381.332 108.837 402.614 102.577 410.126 96.3178C417.637 90.0582 420.141 82.5466 415.133 76.287C410.126 70.0274 397.606 72.5313 391.347 77.539C386.339 81.5451 380.914 85.0505 378.828 86.3024C377.158 82.1293 373.57 71.029 372.568 60.0121C371.316 46.241 386.339 46.241 398.858 47.4929C411.378 48.7448 427.653 44.989 427.653 34.9737C427.653 24.9583 420.141 18.6987 405.118 19.9506Z" fill="#ED5029"/>
<path d="M567.868 31.2175C554.097 52.5001 546.585 110.089 544.081 130.119C541.783 147.646 547.837 163.921 566.616 161.417C581.639 159.414 581.222 142.639 580.387 133.875C586.396 126.864 594.576 126.781 597.914 127.615C599.166 136.379 609.181 167.677 629.212 161.417C649.243 155.158 642.983 136.379 637.975 123.86C629.212 102.577 615.441 53.752 606.677 33.7213C597.914 13.6906 581.639 9.93482 567.868 31.2175Z" fill="#ED5029"/>
<path d="M689.304 16.1948C664.266 16.1948 665.517 46.2409 668.021 65.0197C670.525 76.287 673.029 83.7985 673.029 100.073C673.029 116.348 666.769 123.86 663.014 133.875C659.258 143.891 668.021 162.669 698.067 162.669C728.113 162.669 760.663 147.646 763.167 115.097C765.17 89.0566 743.136 76.7043 731.869 73.7831C754.404 58.7601 758.16 39.9813 744.388 28.714C730.617 17.4467 714.342 16.1948 689.304 16.1948Z" fill="#ED5029"/>
<path d="M789.458 22.4547C781.946 38.7296 786.954 58.7603 790.71 72.5315C792.665 80.0432 795.717 91.31 793.213 107.585C790.71 123.86 780.694 135.127 780.694 148.898C780.694 162.669 795.717 162.669 808.236 160.166C820.756 157.662 828.267 160.166 850.802 162.669C873.336 165.173 878.344 138.883 864.573 126.364C850.802 113.845 830.771 121.356 818.252 127.616C805.733 133.875 815.748 113.845 819.504 97.5696C823.259 81.2947 825.763 49.9969 819.504 33.7219C813.244 17.447 796.969 6.1797 789.458 22.4547Z" fill="#ED5029"/>
<path d="M899.627 28.7141C893.367 37.4776 893.367 51.2487 898.375 76.2871C903.382 116.349 895.871 115.096 893.367 135.127C890.863 155.158 912.146 166.425 930.925 161.417C949.703 156.41 948.452 162.669 963.475 162.669C978.498 162.669 984.757 147.646 977.246 135.127C969.734 122.608 957.215 121.356 945.948 126.364C934.68 131.371 932.177 131.371 927.169 131.371C922.161 131.371 923.413 117.6 924.665 112.593C925.917 107.585 942.192 107.585 953.459 100.073C964.727 92.5618 970.986 85.0503 964.727 77.5388C958.467 70.0273 949.703 71.2792 943.444 76.2871C937.184 81.295 930.925 85.0503 928.421 85.0503C925.917 85.0503 922.161 71.2792 922.161 62.5157C922.161 53.7523 923.413 49.9965 927.169 47.4927C930.925 44.9889 939.688 47.4927 952.207 47.4927C964.727 47.4927 977.246 44.9889 977.246 33.7216C977.246 22.4543 965.978 18.6985 957.215 18.6985C948.452 18.6985 943.444 23.7065 930.925 19.9507C918.405 16.1949 905.886 19.9507 899.627 28.7141Z" fill="#ED5029"/>
<path d="M504.224 17.4462C487.949 21.2019 465.414 12.4385 455.399 8.68274C430.36 -0.0807042 426.604 22.4539 435.368 31.2173C442.379 38.228 458.32 47.4923 465.414 51.248C466.666 60.8461 467.918 84.0483 462.91 100.073C456.651 120.104 451.643 151.402 471.674 150.15C491.704 148.898 495.46 115.096 495.46 98.821C495.46 85.801 492.122 60.8461 490.452 49.9961C516.743 47.4923 530.514 37.4769 530.514 27.4615C530.514 17.4462 520.498 13.6904 504.224 17.4462Z" fill="#F3F2A4" stroke="#ED5029" stroke-width="3"/>
<path d="M101.105 101.325C102.357 78.7905 113.624 33.7214 118.632 22.4541C123.64 12.4387 133.655 -0.0804794 141.167 3.67528C148.678 7.43104 148.678 21.2022 141.167 37.4771C133.655 53.7521 131.151 87.5539 138.663 101.325C146.174 115.096 154.938 146.394 133.655 150.15C112.372 153.906 99.8532 123.86 101.105 101.325Z" fill="#F3F2A4"/>
<path d="M178.724 27.4617C177.472 46.2405 179.976 83.7981 173.716 105.081C166.205 118.852 164.953 150.15 183.732 150.15C202.511 150.15 205.014 131.371 205.014 116.348C205.014 101.325 198.755 83.7981 198.755 62.5155C198.755 41.2329 205.014 52.5001 207.518 68.7751C210.022 85.05 217.534 113.844 223.793 131.371C230.053 148.898 243.824 143.89 248.832 125.111C253.839 106.333 260.099 77.5385 262.603 70.027C265.107 62.5155 272.618 73.7828 268.862 95.0654C265.107 116.348 271.366 150.15 290.145 150.15C308.924 150.15 306.42 122.608 300.16 105.081C293.901 87.5539 296.405 72.5309 297.657 42.4848C298.908 12.4387 288.893 6.1791 278.878 3.67528C268.862 1.17146 253.839 3.67528 250.084 24.9579C246.328 46.2405 240.068 61.2636 237.564 68.7751C235.061 76.2866 223.793 46.2405 220.038 24.9579C216.282 3.67526 206.266 2.42334 198.755 2.42334C191.243 2.42334 179.976 8.68294 178.724 27.4617Z" fill="#F3F2A4"/>
<path d="M101.105 101.325C102.357 78.7905 113.624 33.7214 118.632 22.4541C123.64 12.4387 133.655 -0.0804794 141.167 3.67528C148.678 7.43104 148.678 21.2022 141.167 37.4771C133.655 53.7521 131.151 87.5539 138.663 101.325C146.174 115.096 154.938 146.394 133.655 150.15C112.372 153.906 99.8532 123.86 101.105 101.325Z" stroke="#ED5029" stroke-width="3"/>
<path d="M178.724 27.4617C177.472 46.2405 179.976 83.7981 173.716 105.081C166.205 118.852 164.953 150.15 183.732 150.15C202.511 150.15 205.014 131.371 205.014 116.348C205.014 101.325 198.755 83.7981 198.755 62.5155C198.755 41.2329 205.014 52.5001 207.518 68.7751C210.022 85.05 217.534 113.844 223.793 131.371C230.053 148.898 243.824 143.89 248.832 125.111C253.839 106.333 260.099 77.5385 262.603 70.027C265.107 62.5155 272.618 73.7828 268.862 95.0654C265.107 116.348 271.366 150.15 290.145 150.15C308.924 150.15 306.42 122.608 300.16 105.081C293.901 87.5539 296.405 72.5309 297.657 42.4848C298.908 12.4387 288.893 6.1791 278.878 3.67528C268.862 1.17146 253.839 3.67528 250.084 24.9579C246.328 46.2405 240.068 61.2636 237.564 68.7751C235.061 76.2866 223.793 46.2405 220.038 24.9579C216.282 3.67526 206.266 2.42334 198.755 2.42334C191.243 2.42334 179.976 8.68294 178.724 27.4617Z" stroke="#ED5029" stroke-width="3"/>
<path d="M54.7843 18.6984C41.0132 19.9503 37.2574 12.4387 28.4939 8.68298C20.9824 4.50599 -0.30029 4.9268 2.20355 21.2018C4.18857 34.1044 25.5991 45.2042 36.9502 51.089L37.2574 51.2483C37.6747 62.5155 37.5078 89.8075 33.5017 103.829C28.494 121.356 15.9748 150.15 39.7613 150.15C63.5478 150.15 64.7997 120.104 66.0516 98.8213C67.0532 81.7952 63.9651 59.1772 62.2959 49.9964C82.3266 47.4926 101.105 38.7291 101.105 27.4619C101.105 16.1946 93.5939 12.4388 86.0824 13.6907C78.5708 14.9427 68.5555 17.4465 54.7843 18.6984Z" fill="#F3F2A4" stroke="#ED5029" stroke-width="3"/>
<path d="M389.047 7.43135C374.024 8.68327 359.001 6.17943 350.237 6.17943C340.222 5.62451 330.207 13.691 328.955 28.714C327.703 43.737 331.459 53.7524 333.962 70.0274C336.466 86.3023 332.71 100.073 327.703 112.593C322.695 125.112 330.207 141.387 341.474 147.646C352.741 153.906 367.764 143.891 387.795 147.646C407.826 151.402 412.833 142.639 414.085 135.127C415.337 127.616 410.329 118.852 402.818 113.845C395.306 108.837 384.039 112.593 377.78 115.096C371.52 117.6 356.497 121.356 356.497 112.593C356.497 105.582 359.001 99.6561 360.253 97.5696C365.26 96.3177 386.543 90.0581 394.055 83.7985C401.566 77.5389 404.07 70.0274 399.062 63.7678C394.055 57.5082 381.535 60.012 375.276 65.0197C370.268 69.0258 364.843 72.5312 362.757 73.7831C361.087 69.6101 357.498 58.5097 356.497 47.4928C355.245 33.7217 370.268 33.7217 382.787 34.9736C395.306 36.2255 411.581 32.4698 411.581 22.4544C411.581 12.439 404.07 6.17943 389.047 7.43135Z" fill="#F3F2A4" stroke="#ED5029" stroke-width="3"/>
<path fill-rule="evenodd" clip-rule="evenodd" d="M528.01 117.6C530.514 97.5693 538.025 39.9808 551.796 18.6982C565.568 -2.58447 581.843 1.17129 590.606 21.202C595.203 31.7102 601.179 50.1428 607.086 68.3663C612.44 84.8804 617.738 101.223 621.904 111.34C626.912 123.86 633.171 142.638 613.141 148.898C593.11 155.158 583.094 123.86 581.843 115.096C578.504 114.262 570.325 114.345 564.316 121.356C565.15 130.119 565.568 146.895 550.545 148.898C531.766 151.402 525.711 135.127 528.01 117.6ZM560.56 95.0657C560.143 87.5542 559.809 70.2777 561.812 61.2639C564.316 49.9966 568.071 47.4927 570.575 60.0119L570.575 60.0128L570.575 60.0128C573.079 72.5317 575.583 85.0502 574.331 87.554C573.079 90.0578 560.679 97.5697 560.56 95.0657Z" fill="#F3F2A4"/>
<path d="M551.796 18.6982L550.537 17.8833L551.796 18.6982ZM528.01 117.6L529.497 117.795L529.498 117.786L528.01 117.6ZM590.606 21.202L589.232 21.8032L590.606 21.202ZM607.086 68.3663L608.513 67.9037L607.086 68.3663ZM621.904 111.34L623.297 110.783L623.294 110.776L623.291 110.769L621.904 111.34ZM581.843 115.096L583.327 114.884L583.185 113.886L582.206 113.641L581.843 115.096ZM564.316 121.356L563.177 120.38L562.762 120.864L562.822 121.498L564.316 121.356ZM550.545 148.898L550.346 147.411L550.545 148.898ZM561.812 61.2639L560.348 60.9385V60.9385L561.812 61.2639ZM560.56 95.0657L562.058 94.9942L562.058 94.9825L560.56 95.0657ZM570.575 60.0119L572.047 59.7216L572.046 59.7178L570.575 60.0119ZM570.575 60.0128L569.104 60.3032L569.111 60.3401L569.12 60.3766L570.575 60.0128ZM570.575 60.0128L572.046 59.7187L572.039 59.6837L572.031 59.649L570.575 60.0128ZM574.331 87.554L572.989 86.8832L574.331 87.554ZM550.537 17.8833C546.982 23.3779 543.882 31.1237 541.189 39.872C538.489 48.6424 536.169 58.5155 534.207 68.3244C530.283 87.9428 527.774 107.393 526.522 117.414L529.498 117.786C530.75 107.776 533.248 88.417 537.149 68.9128C539.099 59.1603 541.396 49.394 544.056 40.7547C546.722 32.0935 549.726 24.6598 553.056 19.5131L550.537 17.8833ZM591.98 20.6008C587.513 10.3904 580.922 3.83919 573.248 2.96718C565.521 2.0891 557.545 7.05255 550.537 17.8833L553.056 19.5131C559.819 9.06116 566.866 5.26117 572.91 5.94799C579.007 6.64088 584.935 11.9829 589.232 21.8032L591.98 20.6008ZM608.513 67.9037C602.618 49.7174 596.615 31.1947 591.98 20.6008L589.232 21.8032C593.792 32.2257 599.74 50.5683 605.66 68.8288L608.513 67.9037ZM623.291 110.769C619.152 100.719 613.876 84.4445 608.513 67.9037L605.66 68.8288C611.004 85.3163 616.323 101.727 620.517 111.912L623.291 110.769ZM613.588 150.33C618.825 148.693 622.48 146.193 624.86 143.056C627.238 139.921 628.244 136.28 628.41 132.533C628.739 125.126 625.791 117.019 623.297 110.783L620.511 111.898C623.025 118.182 625.71 125.723 625.413 132.4C625.267 135.695 624.395 138.705 622.469 141.243C620.545 143.779 617.472 145.973 612.693 147.466L613.588 150.33ZM580.358 115.308C581.009 119.867 583.888 130.091 589.183 138.434C591.835 142.613 595.161 146.43 599.223 148.787C603.337 151.175 608.153 152.028 613.588 150.33L612.693 147.466C608.113 148.898 604.165 148.186 600.729 146.192C597.24 144.168 594.228 140.786 591.716 136.827C586.683 128.896 583.928 119.089 583.327 114.884L580.358 115.308ZM565.455 122.332C570.998 115.865 578.531 115.815 581.479 116.551L582.206 113.641C578.477 112.709 569.652 112.825 563.177 120.38L565.455 122.332ZM550.743 150.385C554.79 149.845 557.885 148.292 560.194 146.06C562.487 143.844 563.927 141.036 564.813 138.095C566.573 132.255 566.228 125.618 565.809 121.214L562.822 121.498C563.238 125.857 563.519 131.989 561.94 137.229C561.157 139.828 559.936 142.137 558.109 143.903C556.297 145.654 553.81 146.949 550.346 147.411L550.743 150.385ZM526.523 117.405C525.35 126.343 526.27 135.182 530.087 141.533C532.011 144.733 534.674 147.305 538.155 148.893C541.631 150.48 545.824 151.041 550.743 150.385L550.346 147.411C545.875 148.007 542.269 147.473 539.401 146.164C536.537 144.857 534.309 142.734 532.659 139.988C529.329 134.446 528.371 126.384 529.497 117.795L526.523 117.405ZM560.348 60.9385C559.311 65.6031 558.893 72.3049 558.778 78.7012C558.663 85.1267 558.852 91.3607 559.062 95.1489L562.058 94.9825C561.851 91.2592 561.664 85.0991 561.778 78.7551C561.893 72.3818 562.31 65.9385 563.276 61.5893L560.348 60.9385ZM572.046 59.7178C571.411 56.5441 570.672 54.1721 569.816 52.618C569.39 51.8441 568.871 51.154 568.214 50.7009C567.5 50.2083 566.642 50.0174 565.763 50.2812C564.966 50.5203 564.34 51.0773 563.859 51.671C563.366 52.2799 562.923 53.052 562.521 53.9299C561.716 55.6883 560.985 58.0711 560.348 60.9385L563.276 61.5893C563.891 58.823 564.568 56.6676 565.249 55.1788C565.591 54.4332 565.911 53.9045 566.19 53.5597C566.482 53.1998 566.639 53.1504 566.625 53.1547C566.528 53.1838 566.452 53.1298 566.511 53.1703C566.626 53.2502 566.871 53.4893 567.188 54.0652C567.819 55.2105 568.487 57.2202 569.104 60.3061L572.046 59.7178ZM572.047 59.7224L572.047 59.7216L569.104 60.3023L569.104 60.3032L572.047 59.7224ZM572.031 59.649L572.031 59.649L569.12 60.3766L569.12 60.3766L572.031 59.649ZM575.673 88.2248C575.962 87.6471 576.077 86.9425 576.127 86.2798C576.181 85.5819 576.173 84.766 576.122 83.8698C576.02 82.0754 575.737 79.8281 575.344 77.3075C574.555 72.2618 573.296 65.9677 572.046 59.7187L569.105 60.307C570.359 66.5769 571.603 72.8014 572.38 77.7706C572.768 80.2575 573.033 82.3917 573.127 84.04C573.174 84.865 573.176 85.5357 573.136 86.0506C573.117 86.3067 573.088 86.5059 573.056 86.655C573.04 86.7286 573.025 86.7839 573.012 86.8238C573.005 86.8434 573 86.858 572.996 86.8681C572.994 86.8731 572.992 86.8768 572.991 86.8794C572.991 86.8806 572.99 86.8816 572.99 86.8822C572.989 86.8837 572.99 86.8816 572.989 86.8829C572.989 86.8843 572.99 86.8819 572.989 86.8832L575.673 88.2248ZM559.062 95.1372C559.086 95.6394 559.287 96.1767 559.757 96.5708C560.18 96.926 560.664 97.0306 561.01 97.0594C561.676 97.1148 562.414 96.9345 563.051 96.7265C564.396 96.2878 566.1 95.4458 567.768 94.4887C569.451 93.5223 571.177 92.392 572.575 91.331C573.273 90.8012 573.909 90.2742 574.423 89.7811C574.906 89.3183 575.395 88.7798 575.673 88.2248L572.989 86.8832C572.954 86.9541 572.782 87.1981 572.347 87.6155C571.943 88.0028 571.403 88.4538 570.761 88.9413C569.478 89.9147 567.862 90.9754 566.274 91.8869C564.67 92.8078 563.174 93.5308 562.121 93.8745C561.864 93.9583 561.655 94.0122 561.494 94.0421C561.325 94.0735 561.255 94.0694 561.259 94.0697C561.265 94.0702 561.311 94.0743 561.383 94.099C561.458 94.1244 561.568 94.1749 561.684 94.2722C561.959 94.5025 562.049 94.805 562.058 94.9942L559.062 95.1372Z" fill="#ED5029"/>
<path fill-rule="evenodd" clip-rule="evenodd" d="M673.233 3.67529C648.194 3.67529 649.446 33.7214 651.95 52.5002C652.356 54.326 652.762 56.0531 653.157 57.7349C655.2 66.4319 656.958 73.9162 656.958 87.5539C656.958 99.5688 653.546 106.808 650.249 113.804C649.08 116.284 647.926 118.734 646.942 121.356C643.187 131.371 651.95 150.15 681.996 150.15C712.042 150.15 744.592 135.127 747.096 102.577C749.099 76.537 727.065 64.1848 715.798 61.2636C738.333 46.2406 742.088 27.4618 728.317 16.1945C714.546 4.92721 698.271 3.67529 673.233 3.67529ZM680.744 33.7218C677.498 35.8855 678.928 46.4639 680.184 55.7612L680.184 55.7619C680.381 57.2228 680.574 58.6521 680.744 60.0121C681.74 67.5237 685.752 63.7677 689.508 60.0121C693.263 56.2565 702.027 47.4929 702.027 38.7294C702.027 29.966 684.5 31.2179 680.744 33.7218ZM683.248 106.333C683.248 98.8216 684.5 95.0658 689.508 91.3101C694.515 87.5543 709.538 86.3024 710.79 95.0658C712.042 103.829 703.279 115.096 694.515 120.104C685.752 125.112 683.248 123.86 683.248 120.104V106.333Z" fill="#F3F2A4"/>
<path d="M651.95 52.5002L650.463 52.6984L650.472 52.7625L650.486 52.8256L651.95 52.5002ZM653.157 57.7349L654.617 57.3919L653.157 57.7349ZM650.249 113.804L648.892 113.164H648.892L650.249 113.804ZM646.942 121.356L648.347 121.882H648.347L646.942 121.356ZM747.096 102.577L745.6 102.462L747.096 102.577ZM715.798 61.2636L714.966 60.0155L712.177 61.8745L715.422 62.7156L715.798 61.2636ZM728.317 16.1945L727.367 17.3554L728.317 16.1945ZM680.184 55.7612L678.697 55.962L678.697 55.9638L680.184 55.7612ZM680.744 33.7218L679.912 32.4737L680.744 33.7218ZM680.184 55.7619L681.67 55.5611L681.67 55.5593L680.184 55.7619ZM680.744 60.0121L679.256 60.1981L679.257 60.2092L680.744 60.0121ZM689.508 60.0121L688.447 58.9514L689.508 60.0121ZM689.508 91.3101L688.608 90.1101L689.508 91.3101ZM710.79 95.0658L709.305 95.278L710.79 95.0658ZM694.515 120.104L695.26 121.406L694.515 120.104ZM653.437 52.3019C652.187 42.9286 651.29 30.9724 653.717 21.4149C654.926 16.6561 656.929 12.613 660.01 9.76488C663.061 6.94462 667.298 5.17529 673.233 5.17529V2.17529C666.649 2.17529 661.652 4.16172 657.974 7.56194C654.326 10.9343 652.105 15.5764 650.809 20.6765C648.229 30.8367 649.209 43.293 650.463 52.6984L653.437 52.3019ZM654.617 57.3919C654.222 55.709 653.818 53.9904 653.414 52.1748L650.486 52.8256C650.894 54.6615 651.302 56.3972 651.696 58.078L654.617 57.3919ZM658.458 87.5539C658.458 73.7444 656.669 66.1285 654.617 57.3919L651.696 58.078C653.73 66.7353 655.458 74.0881 655.458 87.5539H658.458ZM651.606 114.443C654.923 107.405 658.458 99.9153 658.458 87.5539H655.458C655.458 99.2222 652.17 106.21 648.892 113.164L651.606 114.443ZM648.347 121.882C649.305 119.327 650.433 116.932 651.606 114.443L648.892 113.164C647.727 115.637 646.546 118.141 645.538 120.829L648.347 121.882ZM681.996 148.65C667.286 148.65 658.025 144.06 652.897 138.492C647.732 132.884 646.702 126.268 648.347 121.882L645.538 120.829C643.427 126.459 644.901 134.24 650.69 140.525C656.516 146.85 666.66 151.65 681.996 151.65V148.65ZM745.6 102.462C744.39 118.192 735.944 129.692 724.065 137.307C712.148 144.946 696.795 148.65 681.996 148.65V151.65C697.243 151.65 713.188 147.843 725.684 139.832C738.217 131.799 747.298 119.512 748.592 102.692L745.6 102.462ZM715.422 62.7156C720.839 64.1202 728.913 67.8209 735.359 74.3081C741.767 80.7555 746.564 89.941 745.6 102.462L748.592 102.692C749.632 89.173 744.413 79.1624 737.487 72.1934C730.601 65.2642 722.024 61.3281 716.174 59.8116L715.422 62.7156ZM727.367 17.3554C733.827 22.6408 736.101 29.5655 734.219 36.9501C732.309 44.4425 726.058 52.6211 714.966 60.0155L716.63 62.5117C728.073 54.8831 734.967 46.1608 737.126 37.6911C739.312 29.1138 736.578 21.0154 729.267 15.0336L727.367 17.3554ZM673.233 5.17529C698.316 5.17529 714.06 6.46777 727.367 17.3554L729.267 15.0336C715.032 3.38666 698.227 2.17529 673.233 2.17529V5.17529ZM681.67 55.5604C681.039 50.8874 680.381 46.0061 680.275 42.0265C680.222 40.034 680.311 38.3529 680.579 37.0793C680.858 35.7508 681.266 35.1764 681.576 34.9698L679.912 32.4737C678.599 33.349 677.969 34.9083 677.643 36.4624C677.305 38.0713 677.221 40.0216 677.276 42.1063C677.387 46.2812 678.072 51.3376 678.697 55.962L681.67 55.5604ZM681.67 55.5593L681.67 55.5585L678.697 55.9638L678.697 55.9646L681.67 55.5593ZM682.233 59.826C682.061 58.4573 681.867 57.0204 681.67 55.5611L678.697 55.9627C678.895 57.4252 679.087 58.8468 679.256 60.1981L682.233 59.826ZM688.447 58.9514C687.505 59.8934 686.595 60.7857 685.736 61.4982C684.85 62.2336 684.16 62.6535 683.668 62.7982C683.445 62.8638 683.336 62.8498 683.301 62.8417C683.284 62.8377 683.227 62.8261 683.125 62.7117C682.861 62.4146 682.47 61.6202 682.231 59.815L679.257 60.2092C679.516 62.1598 680 63.7128 680.885 64.7067C681.358 65.2378 681.945 65.6076 682.627 65.765C683.291 65.9183 683.939 65.8456 684.514 65.6764C685.619 65.3516 686.698 64.5978 687.651 63.8074C688.632 62.9942 689.632 62.0085 690.568 61.0728L688.447 58.9514ZM700.527 38.7294C700.527 42.6437 698.552 46.711 695.952 50.3817C693.373 54.0217 690.328 57.0709 688.447 58.9514L690.568 61.0728C692.443 59.1977 695.657 55.9873 698.4 52.1157C701.12 48.2749 703.527 43.5787 703.527 38.7294H700.527ZM681.576 34.9698C682.229 34.5344 683.754 34.024 685.881 33.6983C687.943 33.3825 690.36 33.2719 692.649 33.4934C694.963 33.7173 697.007 34.2672 698.428 35.1657C699.782 36.0214 700.527 37.1477 700.527 38.7294H703.527C703.527 35.9295 702.081 33.926 700.031 32.6299C698.049 31.3767 695.476 30.753 692.938 30.5073C690.376 30.2594 687.708 30.3835 685.427 30.7328C683.211 31.0722 681.137 31.6572 679.912 32.4737L681.576 34.9698ZM688.608 90.1101C685.946 92.1066 684.174 94.19 683.107 96.8561C682.06 99.4733 681.748 102.522 681.748 106.333H684.748C684.748 102.633 685.062 100.048 685.893 97.9703C686.704 95.9417 688.062 94.2692 690.408 92.5101L688.608 90.1101ZM712.275 94.8537C711.893 92.1814 710.435 90.2519 708.445 88.9877C706.502 87.7528 704.08 87.1637 701.661 86.9968C699.227 86.829 696.688 87.0804 694.422 87.621C692.176 88.1567 690.082 89.004 688.608 90.1101L690.408 92.5101C691.437 91.7382 693.099 91.0206 695.118 90.5391C697.116 90.0626 699.35 89.8446 701.454 89.9897C703.573 90.1358 705.455 90.6421 706.837 91.5199C708.172 92.3682 709.061 93.5686 709.305 95.278L712.275 94.8537ZM695.26 121.406C699.85 118.783 704.395 114.555 707.643 109.845C710.868 105.17 712.978 99.7752 712.275 94.8537L709.305 95.278C709.854 99.1199 708.209 103.74 705.174 108.142C702.163 112.508 697.944 116.417 693.771 118.802L695.26 121.406ZM681.748 120.104C681.748 121.17 681.919 122.294 682.522 123.215C683.179 124.218 684.21 124.771 685.46 124.884C686.634 124.991 688.008 124.717 689.566 124.156C691.144 123.588 693.026 122.683 695.26 121.406L693.771 118.802C691.623 120.029 689.906 120.845 688.55 121.333C687.173 121.829 686.278 121.946 685.731 121.896C685.259 121.854 685.117 121.702 685.031 121.571C684.89 121.356 684.748 120.916 684.748 120.104H681.748ZM681.748 106.333V120.104H684.748V106.333H681.748Z" fill="#ED5029"/>
<path d="M773.386 9.93537C765.875 26.2103 770.882 46.2411 774.638 60.0122C776.593 67.5239 779.646 78.7907 777.142 95.0657C774.638 111.341 764.623 122.608 764.623 136.379C764.623 150.15 779.646 150.15 792.165 147.646C804.684 145.143 812.196 147.646 834.73 150.15C857.265 152.654 862.273 126.364 848.501 113.845C834.73 101.325 814.7 108.837 802.18 115.096C789.661 121.356 799.677 101.325 803.432 85.0503C807.188 68.7754 809.692 37.4776 803.432 21.2027C797.173 4.92769 780.898 -6.33959 773.386 9.93537Z" fill="#F3F2A4" stroke="#ED5029" stroke-width="3"/>
<path d="M883.555 16.1951C877.296 24.9585 877.296 38.7296 882.303 63.768C887.311 103.83 879.799 102.577 877.296 122.608C874.792 142.639 896.074 153.906 914.853 148.898C933.632 143.891 932.38 150.15 947.403 150.15C962.426 150.15 968.686 135.127 961.174 122.608C953.663 110.089 941.143 108.837 929.876 113.845C918.609 118.852 916.105 118.852 911.097 118.852C906.09 118.852 907.342 105.081 908.594 100.074C909.845 95.0658 926.12 95.0658 937.388 87.5543C948.655 80.0428 954.915 72.5313 948.655 65.0197C942.395 57.5082 933.632 58.7601 927.372 63.768C921.113 68.776 914.853 72.5313 912.349 72.5313C909.845 72.5313 906.09 58.7601 906.09 49.9967C906.09 41.2333 907.342 37.4775 911.097 34.9737C914.853 32.4698 923.617 34.9737 936.136 34.9737C948.655 34.9737 961.174 32.4698 961.174 21.2025C961.174 9.93526 949.907 6.1795 941.143 6.1795C932.38 6.1795 927.372 11.1874 914.853 7.43165C902.334 3.67589 889.815 7.43165 883.555 16.1951Z" fill="#F3F2A4" stroke="#ED5029" stroke-width="3"/>
</svg>
