<svg xmlns="http://www.w3.org/2000/svg" viewBox="0 0 383.47 388.43"><defs><style>.cls-1{stroke:#000;}.cls-1,.cls-3,.cls-4,.cls-5,.cls-6{stroke-linecap:round;stroke-linejoin:round;stroke-width:2px;}.cls-2{font-size:72px;fill:#fff;font-family:S-CoreDream-7ExtraBold, S-Core Dream;font-weight:800;}.cls-3{fill:#f3d111;}.cls-3,.cls-4{stroke:#692a11;}.cls-4,.cls-6{fill:none;}.cls-5{fill:#b56228;stroke:#7b2f18;}.cls-6{stroke:#af5d27;}</style></defs><title>black_bg_y</title><g id="Layer_2" data-name="Layer 2"><g id="Layer_3" data-name="Layer 3"><circle class="cls-1" cx="197.56" cy="202.51" r="184.87"/><text class="cls-2" transform="translate(85.82 209.48) rotate(-70.47)">U</text><text class="cls-2" transform="matrix(0.62, -0.79, 0.79, 0.62, 101.66, 164.73)">p</text><text class="cls-2" transform="translate(127.89 132.9) rotate(-39.24)"> </text><text class="cls-2" transform="translate(142.16 120.4) rotate(-28.98)">t</text><text class="cls-2" transform="matrix(0.97, -0.25, 0.25, 0.97, 166.25, 105.77)">o</text><path class="cls-3" d="M323.13,215.08a244.14,244.14,0,0,0-14.23-33.25,19,19,0,0,0-2.95-4.55c-3.21-3.36-8.12-3.88-12.72-4-.49-1.29-1-2.58-1.49-3.87-1.52-3.87-3.17-7.78-5.89-10.88s-6.72-5.3-10.75-4.77c-3.24.42-6,2.47-8.56,4.58-.42-1.29-.85-2.57-1.29-3.86-1.66-4.92-3.85-10.32-8.61-12.4-5-2.18-10.67.28-15,3.82a269.33,269.33,0,0,1,5.63-62.49c.92-4.39,1.95-8.9,1.15-13.31s-4-8.74-8.45-9.31a10.43,10.43,0,0,0-8.17,3,25.31,25.31,0,0,0-5.06,7.38c-7.19,14.28-10.66,30.16-12.8,46-2.05,15.27-2,32-3.63,47.29-.32,3-.26,13.44-1.41,16.34-.31.2-7.53-11.92-12.14-11-8.15,1.56-16.87-5.82-24.32-2.15-2.38,1.17-4.12,3.31-5.69,5.45A90.56,90.56,0,0,0,156,192.33a26.26,26.26,0,0,0-2.19,8,29.88,29.88,0,0,0,.95,8.29q2.85,13.38,6.37,26.6l.06-.09c.35,1.33.77,2.65,1.23,3.94,6.25,17.77,19,32.52,26.56,49.78,3,6.73,5.34,14.17,11,18.82.11.1.24.18.36.27a63,63,0,0,1,7.37,26.31c.12,2.14.2,4.48,1.62,6.07a8.29,8.29,0,0,0,2.68,1.79,68.31,68.31,0,0,0,46.69,4.43c11.71-3.1,23.47-10.6,26.48-22.33a46,46,0,0,0,1.07-9.73l.33-8.63a46.08,46.08,0,0,0,3.18-5.49l29.5-57.11c2.45-4.75,4.94-9.59,5.89-14.85C326,223.86,325.49,218.93,323.13,215.08Zm-118.95.51c-.88,2-3.48,5.67-4.35,7.68-1.15,0-5.52-4.47-6.7-9.66-1.51-6.61-2.18-13.44-5.31-19.45l-.71-1.19c3.09,2.77,2.32,1.33,9.29,5.3,1.27.72,4.79,2.61,6.44,2.63,5.19.07,5.66-3.39,4.87,2.51A46,46,0,0,1,204.18,215.59Z"/><path class="cls-4" d="M209.57,178.25c-1.39,12.42-.39,21.09-3.11,31.24-1.57,5.86-7.72,17.64-11.81,22.12"/><path class="cls-4" d="M241.85,144.37c-.44,4.42.2,8.86.83,13.26l.95,6.55A52.24,52.24,0,0,0,244.7,170a50.81,50.81,0,0,0,2.37,6.52l9.52,22.94"/><path class="cls-4" d="M266.41,158.93c4.17,16.13,12.92,30.57,19.24,46"/><path class="cls-4" d="M293.14,173.61q6.41,17.4,13.22,34.63"/><path class="cls-5" d="M245.64,45.65c-1.46-.62-4.06,4.94-4.46,6.29q-2.66,8.82-5.29,17.64a22.53,22.53,0,0,0-1.18,5.61,7.51,7.51,0,0,0,1.62,5.32c1.6,1.78,4.08,2.07,6.36,2.27a2.21,2.21,0,0,0,1.46-.22A2.62,2.62,0,0,0,245,81a111,111,0,0,0,3.1-24.71C248.09,53.72,247.79,46.56,245.64,45.65Z"/><path class="cls-6" d="M236.64,98.34a14.84,14.84,0,0,1,6.66.17"/><path class="cls-6" d="M238.21,102.41l2.85.32"/><path class="cls-6" d="M231.88,135.3a16.93,16.93,0,0,1,7.26,1"/><path class="cls-6" d="M234.42,145.13a13.51,13.51,0,0,1,6,.57"/><path class="cls-6" d="M230.62,140.71a22.36,22.36,0,0,1,10.78.52"/><path class="cls-6" d="M181.42,188.29c5.38.9,9,11.42,9.68,15.33"/><path class="cls-6" d="M252.27,146.61a74.37,74.37,0,0,1,10.48,1.11"/></g></g></svg>