<svg xmlns="http://www.w3.org/2000/svg" viewBox="0 0 383.48 388.43"><defs><style>.cls-1{stroke:#000;}.cls-1,.cls-3,.cls-4,.cls-5{stroke-linecap:round;stroke-linejoin:round;stroke-width:2px;}.cls-2{font-size:72px;fill:#fff;font-family:S-CoreDream-7ExtraBold, S-Core Dream;font-weight:800;}.cls-3{fill:#ed4967;}.cls-3,.cls-4,.cls-5{stroke:#b21e36;}.cls-4{fill:none;}.cls-5{fill:#b21e36;}</style></defs><title>black_bg_p</title><g id="Layer_2" data-name="Layer 2"><g id="Layer_3" data-name="Layer 3"><circle class="cls-1" cx="197.56" cy="202.51" r="184.87"/><text class="cls-2" transform="translate(85.82 209.48) rotate(-70.47)">U</text><text class="cls-2" transform="matrix(0.62, -0.79, 0.79, 0.62, 101.66, 164.73)">p</text><text class="cls-2" transform="translate(127.89 132.9) rotate(-39.24)"> </text><text class="cls-2" transform="translate(142.16 120.4) rotate(-28.98)">t</text><text class="cls-2" transform="matrix(0.97, -0.25, 0.25, 0.97, 166.25, 105.77)">o</text><path class="cls-3" d="M318,219.12a228.58,228.58,0,0,0-14-31.44,18.39,18.39,0,0,0-2.91-4.3c-3.15-3.18-8-3.67-12.48-3.81q-.72-1.83-1.47-3.66c-1.49-3.65-3.11-7.35-5.77-10.28s-6.61-5-10.56-4.52c-3.18.4-5.89,2.34-8.41,4.34-.41-1.22-.83-2.44-1.26-3.65-1.63-4.65-3.79-9.76-8.45-11.72-4.91-2.07-10.48.25-14.73,3.61a246.08,246.08,0,0,1,5.52-59.09c.91-4.15,1.92-8.42,1.13-12.59s-3.93-8.26-8.29-8.8a10.47,10.47,0,0,0-8,2.86,24.09,24.09,0,0,0-5,7c-7.06,13.5-10.47,28.51-12.56,43.5-2,14.43-2,30.22-3.57,44.71-.31,2.87-.26,12.71-1.38,15.45-.31.19-7.39-11.27-11.92-10.43-8,1.47-16.56-5.5-23.88-2a16.18,16.18,0,0,0-5.58,5.15,85.17,85.17,0,0,0-10.59,18.21,24.28,24.28,0,0,0-2.15,7.53,27.42,27.42,0,0,0,.93,7.84q2.81,12.66,6.26,25.16l.06-.09c.35,1.26.75,2.51,1.2,3.73,6.14,16.8,18.67,30.74,26.08,47.06,2.9,6.37,5.24,13.4,10.84,17.8.11.09.23.16.35.25a57.87,57.87,0,0,1,7.24,24.87c.11,2,.19,4.24,1.59,5.75a8.21,8.21,0,0,0,2.63,1.68,69.39,69.39,0,0,0,45.83,4.2c11.5-2.94,23-10,26-21.12a42.33,42.33,0,0,0,1-9.2l.33-8.16a43.78,43.78,0,0,0,3.12-5.19l29-54c2.41-4.49,4.85-9.07,5.78-14A17.55,17.55,0,0,0,318,219.12Zm-116.78.48c-.86,1.9-3.41,5.36-4.27,7.27-1.13,0-5.42-4.23-6.58-9.14-1.48-6.25-2.14-12.7-5.21-18.39l-.7-1.12c3,2.62,2.28,1.26,9.12,5,1.25.68,4.71,2.47,6.33,2.49,5.09.06,5.55-3.21,4.78,2.36A41.85,41.85,0,0,1,201.19,219.6Z"/><path class="cls-4" d="M206.48,184.3c-1.36,11.74-.38,19.94-3,29.54-1.54,5.54-7.58,16.67-11.59,20.91"/><path class="cls-4" d="M238.17,152.26c-.43,4.18.2,8.39.82,12.54l.93,6.2a49.36,49.36,0,0,0,1.05,5.5,47.76,47.76,0,0,0,2.33,6.16l9.35,21.69"/><path class="cls-4" d="M262.28,166c4.1,15.25,12.69,28.91,18.9,43.45"/><path class="cls-4" d="M288.53,179.91q6.29,16.46,13,32.74"/><path class="cls-5" d="M241.9,58.93c-1.44-.59-4,4.67-4.39,5.95l-5.19,16.68a20.93,20.93,0,0,0-1.16,5.3,7,7,0,0,0,1.59,5c1.58,1.68,4,2,6.25,2.14a2.18,2.18,0,0,0,1.43-.21,2.46,2.46,0,0,0,.8-1.51,101.44,101.44,0,0,0,3-23.36C244.3,66.56,244,59.79,241.9,58.93Z"/><path class="cls-4" d="M233.5,103.36a14.84,14.84,0,0,1,6.66.17"/><path class="cls-4" d="M235.07,107.43l2.85.32"/><path class="cls-4" d="M228.74,140.32a16.93,16.93,0,0,1,7.26,1"/><path class="cls-4" d="M231.28,150.15a13.51,13.51,0,0,1,6,.57"/><path class="cls-4" d="M227.49,145.73a22.33,22.33,0,0,1,10.77.52"/><path class="cls-4" d="M178.28,193.3c5.39.91,9,11.43,9.69,15.34"/><path class="cls-4" d="M249.13,151.63a72.91,72.91,0,0,1,10.48,1.11"/></g></g></svg>