<svg width="254" height="45" viewBox="0 0 254 45" fill="none" xmlns="http://www.w3.org/2000/svg">
<path fill-rule="evenodd" clip-rule="evenodd" d="M7.29505 5.87885C4.12928 8.78195 1.79735 12.5798 0.699888 16.8717L7.29505 23.0272V5.87885ZM0.167611 19.7012C0.0569648 20.6056 0 21.5266 0 22.4609C0 29.0242 2.81113 34.931 7.29505 39.0429V26.3534L0.167611 19.7012ZM9.72673 40.9825C13.0415 43.2716 17.0008 44.6938 21.2772 44.9216V39.4034L9.72673 28.623V40.9825ZM23.7088 44.9216C27.9852 44.6938 31.9445 43.2716 35.2593 40.9825V29.2789L23.7088 39.4252V44.9216ZM37.691 39.0429C42.1749 34.9311 44.9861 29.0243 44.9861 22.4609C44.9861 21.8983 44.9654 21.3406 44.9248 20.7884L37.691 27.1429V39.0429ZM44.5242 17.9038C43.554 13.1888 41.1083 9.01255 37.691 5.87881V23.9062L44.5242 17.9038ZM35.2593 3.93922C31.9445 1.65014 27.9852 0.227929 23.7088 0.000150007V14.3031L35.2593 4.15683V3.93922ZM21.2772 0.000152446C17.1409 0.220481 13.3011 1.5583 10.0544 3.71717L21.2772 14.1917V0.000152446ZM21.2772 36.0772L9.72673 25.2967V6.73759L21.2772 17.518V36.0772ZM35.2593 26.0423L23.7088 36.1886V17.5397L35.2593 7.39346V26.0423Z" fill="#01C2C1"/>
<path d="M70.787 35.4233L73.5774 11.6966H79.0245L86.978 27.1691L94.7978 11.6966H100.245L102.835 35.4233H96.3852L95.1403 24.4539L89.0165 35.4233H84.338L78.2475 24.621L76.9025 35.4233H70.787Z" fill="#01C2C1"/>
<path d="M112.089 18.2465V35.4233H105.873V18.2465H112.089ZM108.947 16.9432C107.789 16.9432 106.864 16.5979 106.174 15.9072C105.483 15.1943 105.138 14.3477 105.138 13.3675C105.138 12.3872 105.472 11.5518 106.14 10.8611C106.831 10.1482 107.766 9.79175 108.947 9.79175C110.128 9.79175 111.053 10.1482 111.721 10.8611C112.412 11.5518 112.757 12.3872 112.757 13.3675C112.757 14.3477 112.412 15.1943 111.721 15.9072C111.053 16.5979 110.128 16.9432 108.947 16.9432Z" fill="#01C2C1"/>
<path d="M115.231 35.4233V18.2465H121.413L121.18 21.488C121.892 20.3964 122.761 19.5498 123.786 18.9483C124.833 18.3245 125.992 18.0126 127.262 18.0126C129.378 18.0126 130.971 18.7255 132.04 20.1513C133.11 21.5549 133.633 23.6379 133.611 26.4005L133.544 35.4233H127.328L127.395 26.7347C127.395 24.7296 126.738 23.727 125.424 23.727C124.889 23.727 124.388 23.9053 123.92 24.2617C123.452 24.5959 123.04 25.1974 122.683 26.0663C122.327 26.9129 122.037 28.1048 121.814 29.642C121.592 31.157 121.458 33.0841 121.413 35.4233H115.231Z" fill="#01C2C1"/>
<path d="M166.441 35.4233H159.891V11.6966H168.88C172.556 11.6966 175.263 12.3649 177.001 13.7017C178.761 15.0161 179.641 16.9432 179.641 19.483C179.641 21.1761 179.184 22.6354 178.271 23.8607C177.357 25.086 176.065 26.0329 174.394 26.7012C172.723 27.3473 170.729 27.6704 168.412 27.6704H166.441V35.4233ZM169.081 17.0769H166.441V22.2567H168.747C170.128 22.2567 171.175 22.045 171.888 21.6217C172.623 21.1984 172.991 20.5078 172.991 19.5498C172.991 18.7032 172.679 18.0794 172.055 17.6784C171.431 17.2774 170.44 17.0769 169.081 17.0769Z" fill="#01C2C1"/>
<path d="M198.149 18.3802V35.4233H191.967L192.134 32.9838C190.998 34.8552 189.249 35.7909 186.887 35.7909C184.637 35.7909 182.844 35.0557 181.507 33.5854C180.17 32.115 179.502 30.0987 179.502 27.5367C179.502 25.6207 179.903 23.9498 180.705 22.524C181.529 21.0982 182.61 19.9954 183.946 19.2156C185.283 18.4136 186.72 18.0126 188.257 18.0126C189.438 18.0126 190.441 18.2242 191.265 18.6475C192.111 19.0485 192.769 19.6166 193.237 20.3518L193.738 18.3802H198.149ZM189.226 23.3594C188.202 23.3594 187.388 23.7493 186.787 24.5291C186.185 25.2866 185.885 26.2223 185.885 27.3362C185.885 28.3387 186.119 29.1073 186.586 29.642C187.054 30.1767 187.689 30.4441 188.491 30.4441C189.405 30.4441 190.196 30.0653 190.864 29.3079C191.555 28.5504 191.9 27.559 191.9 26.3337C191.9 25.4202 191.655 24.6962 191.165 24.1615C190.697 23.6268 190.051 23.3594 189.226 23.3594Z" fill="#01C2C1"/>
<path d="M201.282 42.1069V18.2465H207.498L207.298 20.7863C208.434 18.9371 210.183 18.0126 212.544 18.0126C214.794 18.0126 216.588 18.7478 217.925 20.2182C219.261 21.6886 219.93 23.7048 219.93 26.2668C219.93 28.1828 219.518 29.8537 218.693 31.2795C217.891 32.7053 216.822 33.8193 215.485 34.6213C214.171 35.4011 212.734 35.7909 211.174 35.7909C209.682 35.7909 208.445 35.4568 207.465 34.7884L207.498 35.4233V42.1069H201.282ZM210.205 30.4441C211.252 30.4441 212.065 30.0653 212.645 29.3079C213.246 28.5281 213.547 27.5813 213.547 26.4673C213.547 25.4648 213.313 24.6962 212.845 24.1615C212.377 23.6268 211.742 23.3594 210.94 23.3594C210.049 23.3594 209.258 23.7382 208.568 24.4957C207.877 25.2309 207.532 26.2223 207.532 27.4699C207.532 28.361 207.766 29.0851 208.233 29.642C208.724 30.1767 209.381 30.4441 210.205 30.4441Z" fill="#01C2C1"/>
<path d="M230.916 35.7909C228.956 35.7909 227.252 35.4456 225.803 34.755C224.355 34.0421 223.23 33.0284 222.428 31.7139C221.648 30.3995 221.259 28.8511 221.259 27.0688C221.259 25.2643 221.648 23.6825 222.428 22.3235C223.23 20.9645 224.311 19.9063 225.67 19.1488C227.029 18.3913 228.544 18.0126 230.215 18.0126C232.264 18.0126 233.902 18.4581 235.127 19.3493C236.352 20.2404 237.188 21.4769 237.633 23.0587C238.101 24.6182 238.19 26.4228 237.901 28.4724H227.608C227.764 29.0294 228.165 29.5195 228.811 29.9428C229.457 30.3438 230.326 30.5443 231.418 30.5443C232.041 30.5443 232.632 30.4441 233.189 30.2436C233.768 30.0208 234.236 29.72 234.592 29.3413L237.834 33.1175C237.21 33.8527 236.341 34.4876 235.227 35.0223C234.136 35.5347 232.699 35.7909 230.916 35.7909ZM230.482 22.3903C229.791 22.3903 229.201 22.5797 228.711 22.9584C228.221 23.3372 227.886 23.8719 227.708 24.5625H232.754C232.688 23.1144 231.93 22.3903 230.482 22.3903Z" fill="#01C2C1"/>
<path d="M252.864 24.2952C252.374 24.0724 251.795 23.961 251.126 23.961C249.366 23.961 248.152 24.8855 247.484 26.7347C246.815 28.5838 246.481 31.48 246.481 35.4233H240.299V24.2617L240.232 18.2465H246.414L246.147 22.6577C246.682 21.0536 247.45 19.884 248.453 19.1488C249.455 18.3913 250.569 18.0126 251.795 18.0126C252.173 18.0126 252.53 18.0349 252.864 18.0794C253.22 18.124 253.599 18.2131 254 18.3468L252.864 24.2952Z" fill="#01C2C1"/>
<path fill-rule="evenodd" clip-rule="evenodd" d="M144.921 14.9269H138.032V18.4341H135.152V23.4442H138.032V35.4683H144.921V23.4442H149.305V18.4341H144.921V14.9269Z" fill="#01C2C1"/>
</svg>
