<svg width="385" height="161" viewBox="0 0 385 161" fill="none" xmlns="http://www.w3.org/2000/svg">
<path fill-rule="evenodd" clip-rule="evenodd" d="M289.607 127.479C295.592 114.351 299.183 92.8673 294.395 67.8033C293.983 65.6454 293.544 63.4698 293.105 61.2948C288.448 38.2071 283.805 15.1855 311.153 14.0948C341.078 12.9012 381.776 24.8365 382.973 51.094C384.17 77.3516 344.669 101.62 325.517 108.383C327.113 124.695 325.278 157.318 305.168 157.318C285.059 157.318 286.415 137.425 289.607 127.479ZM319.321 52.9182C321.19 59.661 324.135 70.281 324.135 75.005C324.135 81.0611 332.604 75.005 337.444 68.9489C342.283 62.8928 347.123 54.4143 345.913 45.9358C344.703 37.4574 314.456 32.6125 318.086 48.3583C318.352 49.4239 318.794 51.0169 319.321 52.9182Z" fill="black"/>
<path d="M294.395 67.8033L292.922 68.0847L294.395 67.8033ZM289.607 127.479L288.242 126.857L288.206 126.937L288.179 127.021L289.607 127.479ZM293.105 61.2948L291.635 61.5914H291.635L293.105 61.2948ZM311.153 14.0948L311.213 15.5936L311.153 14.0948ZM382.973 51.094L384.472 51.0257L382.973 51.094ZM325.517 108.383L325.018 106.969L323.91 107.36L324.024 108.529L325.517 108.383ZM319.321 52.9182L320.766 52.5174L319.321 52.9182ZM337.444 68.9489L338.616 69.8853L337.444 68.9489ZM345.913 45.9358L347.398 45.7239L345.913 45.9358ZM318.086 48.3583L316.624 48.6952L316.627 48.7085L316.63 48.7217L318.086 48.3583ZM292.922 68.0847C297.658 92.8787 294.084 114.042 288.242 126.857L290.972 128.102C297.1 114.659 300.708 92.8559 295.869 67.5218L292.922 68.0847ZM291.635 61.5914C292.074 63.7677 292.511 65.9357 292.922 68.0847L295.869 67.5218C295.455 65.3551 295.014 63.1719 294.576 60.9982L291.635 61.5914ZM311.094 12.5959C304.057 12.8766 298.872 14.5753 295.203 17.5123C291.517 20.4641 289.54 24.5245 288.654 29.1647C287.773 33.777 287.956 39.0319 288.626 44.5151C289.297 50.0054 290.473 55.8322 291.635 61.5914L294.576 60.9982C293.409 55.2136 292.258 49.5048 291.604 44.151C290.948 38.7902 290.806 33.8925 291.601 29.7272C292.39 25.5897 294.089 22.2472 297.078 19.8542C300.086 17.4464 304.575 15.8583 311.213 15.5936L311.094 12.5959ZM384.472 51.0257C383.834 37.0238 372.675 27.1177 358.435 20.9247C344.131 14.704 326.245 11.9917 311.094 12.5959L311.213 15.5936C325.987 15.0043 343.412 17.6629 357.238 23.6758C371.128 29.7164 380.916 38.9067 381.475 51.1623L384.472 51.0257ZM326.017 109.797C335.761 106.357 350.582 98.5092 362.842 88.1968C375.024 77.9492 385.104 64.9032 384.472 51.0257L381.475 51.1623C382.039 63.5423 372.967 75.7592 360.911 85.901C348.931 95.978 334.426 103.646 325.018 106.969L326.017 109.797ZM305.168 158.818C310.661 158.818 314.94 156.567 318.172 152.968C321.364 149.413 323.511 144.577 324.93 139.361C327.768 128.928 327.818 116.496 327.01 108.237L324.024 108.529C324.812 116.582 324.743 128.617 322.035 138.573C320.681 143.552 318.698 147.891 315.94 150.963C313.221 153.991 309.73 155.818 305.168 155.818V158.818ZM288.179 127.021C286.537 132.136 285.318 139.924 287.207 146.54C288.162 149.883 289.93 152.988 292.895 155.247C295.862 157.508 299.889 158.818 305.168 158.818V155.818C300.392 155.818 297.048 154.64 294.713 152.861C292.376 151.08 290.913 148.59 290.092 145.716C288.431 139.9 289.485 132.769 291.036 127.938L288.179 127.021ZM325.635 75.005C325.635 72.4419 324.854 68.4418 323.889 64.3724C322.911 60.2521 321.7 55.8844 320.766 52.5174L317.875 53.319C318.811 56.6947 320.007 61.0084 320.97 65.0648C321.944 69.1721 322.635 72.844 322.635 75.005H325.635ZM336.272 68.0125C333.933 70.9392 330.748 73.8163 328.246 75.2081C327.629 75.5508 327.096 75.7799 326.659 75.9044C326.209 76.0325 325.958 76.0223 325.853 75.9996C325.805 75.9891 325.814 75.9924 325.795 75.9608C325.745 75.8769 325.635 75.611 325.635 75.005H322.635C322.635 75.913 322.79 76.7825 323.222 77.503C323.685 78.2758 324.394 78.7522 325.215 78.9309C325.98 79.0974 326.768 78.9927 327.481 78.7896C328.207 78.5828 328.959 78.2442 329.704 77.8299C332.646 76.1937 336.115 73.0146 338.616 69.8853L336.272 68.0125ZM344.428 46.1478C345.545 53.9738 341.063 62.0178 336.272 68.0125L338.616 69.8853C343.504 63.7679 348.701 54.8549 347.398 45.7239L344.428 46.1478ZM319.547 48.0213C319.143 46.2672 319.237 44.9199 319.603 43.8875C319.967 42.8635 320.638 42.0361 321.588 41.3769C323.544 40.0185 326.637 39.4163 330.122 39.5617C333.568 39.7054 337.149 40.5716 339.901 41.8782C341.276 42.5312 342.39 43.2688 343.174 44.0334C343.96 44.8011 344.338 45.5192 344.428 46.1478L347.398 45.7239C347.185 44.2329 346.354 42.9449 345.269 41.8863C344.181 40.8246 342.762 39.9157 341.188 39.1683C338.041 37.6739 334.06 36.7233 330.247 36.5643C326.473 36.4068 322.609 37.0158 319.877 38.9126C318.482 39.8809 317.377 41.1921 316.776 42.8838C316.178 44.5672 316.121 46.5129 316.624 48.6952L319.547 48.0213ZM320.766 52.5174C320.236 50.6069 319.801 49.037 319.541 47.9948L316.63 48.7217C316.902 49.8109 317.351 51.4269 317.875 53.319L320.766 52.5174Z" fill="black"/>
<path d="M25.0415 75.251C25.0415 95.5983 17.8499 108.764 13.0556 126.718C9.45994 150.655 19.0487 159.034 33.4314 159.034C50.2541 159.034 50.2104 127.914 46.6147 103.977C43.7382 84.8262 45.4161 66.4738 46.6147 59.6914C49.0118 72.8572 60.9983 127.915 69.3883 142.277C77.7782 156.64 92.1601 150.655 94.5572 129.111C96.4749 111.876 105.744 88.4168 110.139 78.8417C112.536 88.4168 111.337 102.78 110.139 118.339C108.94 133.899 114.933 157.837 131.713 157.837C148.493 157.837 150.89 139.883 147.294 124.324C143.698 108.764 138.904 83.6293 141.301 51.3131C143.698 18.9969 126.918 14.2093 117.33 14.2093C107.741 14.2093 95.7558 21.3907 92.1601 41.7379C89.2835 58.0157 82.972 74.4533 80.1754 80.0388C68.1897 57.2978 69.3874 10.6189 43.0199 14.2093C18.0526 17.6092 25.0415 54.9038 25.0415 75.251Z" fill="black" stroke="black" stroke-width="3"/>
<path fill-rule="evenodd" clip-rule="evenodd" d="M170.335 123.666C171.529 96.1291 184.661 37.4634 195.405 25.4905C206.149 13.5176 222.863 8.72881 231.219 33.8714C239.576 59.0139 258.677 114.088 265.84 133.244C273.003 152.401 249.127 165.57 237.188 153.598C227.638 144.02 222.067 129.652 220.475 123.666L206.149 129.653C206.149 138.831 202.568 157.189 188.242 157.189C170.335 157.189 169.708 132.047 170.335 123.666ZM206.127 62.9391C204.159 66.8985 200.223 77.4304 200.223 87.8832C200.223 100.949 200.223 106.888 206.127 100.949C207.522 99.5469 208.784 98.6743 209.868 97.925C213.376 95.5009 215.017 94.3666 213.213 80.7563C210.851 62.9391 208.489 58.1878 206.127 62.9391Z" fill="black"/>
<path d="M195.405 25.4905L196.521 26.4924L195.405 25.4905ZM170.335 123.666L171.831 123.778L171.832 123.754L171.833 123.731L170.335 123.666ZM231.219 33.8714L229.796 34.3445L231.219 33.8714ZM237.188 153.598L236.126 154.657L237.188 153.598ZM220.475 123.666L221.925 123.281L221.483 121.619L219.897 122.282L220.475 123.666ZM206.149 129.653L205.571 128.269L204.649 128.654V129.653H206.149ZM206.127 62.9391L204.784 62.2714V62.2714L206.127 62.9391ZM206.127 100.949L207.191 102.007H207.191L206.127 100.949ZM209.868 97.925L209.015 96.691L209.868 97.925ZM213.213 80.7563L211.726 80.9534L213.213 80.7563ZM194.288 24.4887C191.388 27.7208 188.472 33.8862 185.713 41.4978C182.927 49.1791 180.227 58.5512 177.831 68.3868C173.044 88.0408 169.439 109.697 168.836 123.601L171.833 123.731C172.424 110.099 175.982 88.653 180.746 69.0967C183.125 59.3272 185.797 50.0669 188.533 42.5204C191.294 34.9043 194.05 29.2467 196.521 26.4924L194.288 24.4887ZM232.643 33.3983C228.376 20.5597 221.754 14.7752 214.31 14.2662C207.065 13.7707 199.785 18.3635 194.288 24.4887L196.521 26.4924C201.769 20.6446 208.218 16.8566 214.105 17.2592C219.793 17.6481 225.706 22.0405 229.796 34.3445L232.643 33.3983ZM267.245 132.719C260.091 113.588 240.997 58.5331 232.643 33.3983L229.796 34.3445C238.155 59.4947 257.263 114.589 264.435 133.77L267.245 132.719ZM236.126 154.657C242.714 161.264 252.482 160.827 259.484 156.359C266.558 151.844 271.109 143.053 267.245 132.719L264.435 133.77C267.734 142.591 263.928 149.964 257.87 153.83C251.74 157.742 243.601 157.904 238.251 152.539L236.126 154.657ZM219.025 124.051C220.652 130.169 226.317 144.819 236.126 154.657L238.251 152.539C228.959 143.221 223.481 129.136 221.925 123.281L219.025 124.051ZM206.728 131.037L221.053 125.05L219.897 122.282L205.571 128.269L206.728 131.037ZM188.242 158.689C196.213 158.689 201.106 153.522 203.926 147.499C206.734 141.503 207.649 134.384 207.649 129.653H204.649C204.649 134.1 203.774 140.749 201.209 146.227C198.657 151.678 194.597 155.689 188.242 155.689V158.689ZM168.839 123.554C168.519 127.833 168.509 136.43 170.908 144.022C172.11 147.826 173.949 151.485 176.757 154.207C179.602 156.964 183.372 158.689 188.242 158.689V155.689C184.158 155.689 181.135 154.272 178.845 152.053C176.519 149.798 174.884 146.648 173.769 143.119C171.534 136.044 171.524 127.88 171.831 123.778L168.839 123.554ZM201.723 87.8832C201.723 77.7372 205.566 67.4384 207.471 63.6068L204.784 62.2714C202.753 66.3586 198.723 77.1237 198.723 87.8832H201.723ZM205.064 99.8916C204.362 100.598 203.793 101.08 203.341 101.385C202.871 101.701 202.635 101.752 202.58 101.757C202.569 101.758 202.603 101.754 202.657 101.773C202.71 101.793 202.733 101.817 202.724 101.808C202.684 101.768 202.546 101.589 202.393 101.098C202.089 100.117 201.906 98.5124 201.814 96.2121C201.723 93.9473 201.723 91.1602 201.723 87.8832H198.723C198.723 91.1392 198.723 93.9942 198.816 96.3322C198.909 98.6347 199.095 100.593 199.529 101.988C199.745 102.685 200.069 103.397 200.605 103.932C201.203 104.528 201.984 104.822 202.848 104.745C203.624 104.675 204.356 104.318 205.016 103.873C205.694 103.417 206.417 102.786 207.191 102.007L205.064 99.8916ZM209.015 96.691C207.924 97.4453 206.563 98.3839 205.064 99.8916L207.191 102.007C208.481 100.71 209.644 99.9034 210.721 99.159L209.015 96.691ZM211.726 80.9534C212.631 87.7801 212.619 91.1821 212.085 93.1412C211.617 94.8596 210.763 95.4831 209.015 96.691L210.721 99.159C212.481 97.9428 214.201 96.7871 214.98 93.9297C215.693 91.313 215.599 87.3428 214.7 80.5592L211.726 80.9534ZM207.471 63.6068C207.733 63.0795 207.94 62.8021 208.064 62.6799C208.183 62.5628 208.066 62.7355 207.758 62.7064C207.486 62.6808 207.45 62.5296 207.625 62.7425C207.789 62.9422 208.018 63.3216 208.287 63.9637C209.379 66.5744 210.542 72.0243 211.726 80.9534L214.7 80.5592C213.522 71.6711 212.323 65.8368 211.054 62.8053C210.732 62.0369 210.37 61.3584 209.944 60.8389C209.528 60.3327 208.902 59.801 208.04 59.7197C207.141 59.6349 206.433 60.0767 205.962 60.5397C205.496 60.9974 205.113 61.6109 204.784 62.2714L207.471 63.6068Z" fill="black"/>
<path fill-rule="evenodd" clip-rule="evenodd" d="M279.31 115.466C285.295 102.337 288.886 80.8538 284.098 55.7898C283.686 53.6319 283.247 51.4563 282.808 49.2813C278.151 26.1936 273.507 3.17203 300.856 2.08126C330.781 0.887742 371.479 12.823 372.676 39.0805C373.873 65.3381 334.372 89.6063 315.22 96.3696C316.816 112.681 314.98 145.304 294.871 145.304C274.761 145.304 276.118 125.412 279.31 115.466ZM309.023 40.9047C310.893 47.6475 313.838 58.2675 313.838 62.9915C313.838 69.0476 322.307 62.9915 327.146 56.9354C331.986 50.8794 336.826 42.4009 335.616 33.9224C334.406 25.4439 304.159 20.599 307.788 36.3448C308.054 37.4104 308.496 39.0034 309.023 40.9047Z" fill="#01C2C1"/>
<path d="M284.098 55.7898L282.625 56.0713L284.098 55.7898ZM279.31 115.466L277.945 114.844L277.909 114.924L277.882 115.008L279.31 115.466ZM282.808 49.2813L281.338 49.5779H281.338L282.808 49.2813ZM300.856 2.08126L300.916 3.58007L300.856 2.08126ZM372.676 39.0805L374.174 39.0122V39.0122L372.676 39.0805ZM315.22 96.3696L314.72 94.9552L313.613 95.3464L313.727 96.5157L315.22 96.3696ZM309.023 40.9047L310.469 40.5039L309.023 40.9047ZM327.146 56.9354L328.318 57.8718L327.146 56.9354ZM335.616 33.9224L337.101 33.7105L335.616 33.9224ZM307.788 36.3448L306.327 36.6817L306.33 36.695L306.333 36.7082L307.788 36.3448ZM282.625 56.0713C287.361 80.8652 283.787 102.029 277.945 114.844L280.675 116.088C286.803 102.646 290.411 80.8424 285.571 55.5083L282.625 56.0713ZM281.338 49.5779C281.777 51.7542 282.214 53.9222 282.625 56.0713L285.571 55.5083C285.157 53.3416 284.717 51.1584 284.279 48.9847L281.338 49.5779ZM300.796 0.582456C293.76 0.863082 288.574 2.56176 284.906 5.49881C281.219 8.45057 279.242 12.511 278.356 17.1512C277.476 21.7636 277.658 27.0184 278.329 32.5016C279 37.9919 280.176 43.8187 281.338 49.5779L284.279 48.9847C283.112 43.2001 281.961 37.4913 281.306 32.1375C280.651 26.7767 280.508 21.8791 281.303 17.7137C282.093 13.5762 283.792 10.2337 286.781 7.84067C289.788 5.43289 294.277 3.84483 300.916 3.58007L300.796 0.582456ZM374.174 39.0122C373.536 25.0103 362.377 15.1042 348.137 8.91119C333.834 2.69048 315.947 -0.0218263 300.796 0.582456L300.916 3.58007C315.69 2.99083 333.115 5.64938 346.941 11.6623C360.83 17.7029 370.619 26.8932 371.178 39.1488L374.174 39.0122ZM315.719 97.784C325.463 94.3431 340.285 86.4957 352.544 76.1833C364.727 65.9357 374.807 52.8897 374.174 39.0122L371.178 39.1488C371.742 51.5288 362.67 63.7457 350.613 73.8875C338.634 83.9645 324.129 91.6328 314.72 94.9552L315.719 97.784ZM294.871 146.804C300.364 146.804 304.643 144.553 307.875 140.954C311.066 137.4 313.213 132.564 314.632 127.347C317.47 116.915 317.521 104.483 316.713 96.2235L313.727 96.5157C314.515 104.568 314.446 116.603 311.738 126.56C310.383 131.538 308.401 135.878 305.642 138.95C302.924 141.977 299.432 143.804 294.871 143.804V146.804ZM277.882 115.008C276.24 120.122 275.02 127.911 276.91 134.527C277.865 137.87 279.633 140.974 282.598 143.234C285.565 145.495 289.592 146.804 294.871 146.804V143.804C290.095 143.804 286.75 142.627 284.416 140.848C282.079 139.066 280.615 136.576 279.795 133.703C278.133 127.886 279.188 120.755 280.738 115.924L277.882 115.008ZM315.338 62.9915C315.338 60.4285 314.556 56.4283 313.591 52.3589C312.614 48.2386 311.402 43.8709 310.469 40.5039L307.578 41.3055C308.514 44.6813 309.71 48.9949 310.672 53.0514C311.646 57.1587 312.338 60.8305 312.338 62.9915H315.338ZM325.975 55.999C323.636 58.9258 320.451 61.8028 317.948 63.1946C317.332 63.5373 316.798 63.7665 316.362 63.8909C315.912 64.019 315.66 64.0089 315.556 63.9861C315.507 63.9756 315.517 63.9789 315.498 63.9473C315.447 63.8635 315.338 63.5975 315.338 62.9915H312.338C312.338 63.8995 312.493 64.7691 312.924 65.4895C313.388 66.2623 314.096 66.7387 314.918 66.9175C315.683 67.0839 316.471 66.9792 317.184 66.7761C317.909 66.5693 318.661 66.2308 319.406 65.8164C322.348 64.1802 325.818 61.0012 328.318 57.8718L325.975 55.999ZM334.131 34.1343C335.247 41.9603 330.765 50.0043 325.975 55.999L328.318 57.8718C333.207 51.7544 338.404 42.8414 337.101 33.7105L334.131 34.1343ZM309.25 36.0079C308.846 34.2537 308.939 32.9065 309.306 31.874C309.669 30.85 310.341 30.0226 311.29 29.3634C313.247 28.005 316.339 27.4028 319.825 27.5482C323.271 27.6919 326.852 28.5581 329.603 29.8647C330.978 30.5177 332.092 31.2553 332.876 32.0199C333.663 32.7876 334.041 33.5057 334.131 34.1343L337.101 33.7105C336.888 32.2194 336.056 30.9314 334.971 29.8728C333.883 28.8112 332.464 27.9022 330.89 27.1548C327.743 25.6605 323.763 24.7098 319.95 24.5508C316.176 24.3934 312.311 25.0024 309.579 26.8991C308.185 27.8675 307.079 29.1786 306.479 30.8704C305.881 32.5537 305.824 34.4994 306.327 36.6817L309.25 36.0079ZM310.469 40.5039C309.939 38.5934 309.504 37.0235 309.244 35.9814L306.333 36.7082C306.605 37.7974 307.053 39.4134 307.578 41.3055L310.469 40.5039Z" fill="black"/>
<path d="M14.7441 63.2375C14.7441 83.5848 7.55251 96.7506 2.75826 114.704C-0.837426 138.642 8.75129 147.02 23.1341 147.02C39.9567 147.02 39.913 115.901 36.3173 91.9631C33.4408 72.8127 35.1188 54.4603 36.3173 47.6779C38.7145 60.8437 50.701 115.901 59.0909 130.264C67.4809 144.627 81.8627 138.642 84.2599 117.098C86.1776 99.8626 95.4464 76.4034 99.8412 66.8282C102.238 76.4033 101.04 90.7662 99.8412 106.326C98.6426 121.885 104.635 145.823 121.415 145.823C138.195 145.823 140.592 127.87 136.997 112.31C133.401 96.7506 128.607 71.6158 131.004 39.2996C133.401 6.98343 116.621 2.19585 107.033 2.19585C97.4441 2.19585 85.4584 9.37722 81.8627 29.7245C78.9862 46.0022 72.6746 62.4398 69.878 68.0253C57.8924 45.2843 59.09 -1.39463 32.7225 2.19586C7.75525 5.59568 14.7441 42.8903 14.7441 63.2375Z" fill="#01C2C1" stroke="black" stroke-width="3"/>
<path fill-rule="evenodd" clip-rule="evenodd" d="M160.038 111.652C161.232 84.1156 174.364 25.4498 185.108 13.477C195.852 1.50409 212.566 -3.28474 220.922 21.8578C229.279 47.0004 248.38 102.075 255.543 121.231C262.706 140.387 238.83 153.557 226.892 141.584C217.341 132.006 211.77 117.639 210.178 111.652L195.852 117.639C195.852 126.818 192.271 145.176 177.945 145.176C160.038 145.176 159.411 120.033 160.038 111.652ZM195.83 50.9255C193.862 54.8849 189.926 65.4168 189.926 75.8696C189.926 88.9356 189.926 94.8746 195.83 88.9356C197.224 87.5332 198.487 86.6607 199.571 85.9114C203.079 83.4873 204.72 82.353 202.916 68.7427C200.554 50.9255 198.192 46.1742 195.83 50.9255Z" fill="#01C2C1"/>
<path d="M185.108 13.477L183.992 12.4751L185.108 13.477ZM160.038 111.652L161.534 111.764L161.535 111.741L161.536 111.717L160.038 111.652ZM220.922 21.8578L222.346 21.3847L220.922 21.8578ZM226.892 141.584L225.829 142.643L226.892 141.584ZM210.178 111.652L211.628 111.267L211.186 109.606L209.6 110.268L210.178 111.652ZM195.852 117.639L195.274 116.255L194.352 116.64V117.639H195.852ZM195.83 50.9255L197.173 51.5932L195.83 50.9255ZM195.83 88.9356L194.766 87.878L195.83 88.9356ZM199.571 85.9114L198.718 84.6774H198.718L199.571 85.9114ZM202.916 68.7427L204.403 68.5456L202.916 68.7427ZM183.992 12.4751C181.091 15.7072 178.176 21.8727 175.416 29.4843C172.631 37.1656 169.93 46.5377 167.534 56.3732C162.747 76.0273 159.142 97.6831 158.539 111.587L161.536 111.717C162.128 98.085 165.686 76.6394 170.449 57.0832C172.828 47.3136 175.5 38.0533 178.236 30.5069C180.998 22.8907 183.753 17.2332 186.224 14.4788L183.992 12.4751ZM222.346 21.3847C218.079 8.54612 211.457 2.76164 204.013 2.2526C196.768 1.75715 189.488 6.34997 183.992 12.4751L186.224 14.4788C191.472 8.63109 197.921 4.84305 203.808 5.24561C209.496 5.63458 215.41 10.027 219.499 22.3309L222.346 21.3847ZM256.948 120.705C249.794 101.574 230.7 46.5196 222.346 21.3847L219.499 22.3309C227.858 47.4812 246.966 102.575 254.138 121.756L256.948 120.705ZM225.829 142.643C232.417 149.25 242.185 148.814 249.187 144.345C256.262 139.83 260.812 131.04 256.948 120.705L254.138 121.756C257.437 130.578 253.631 137.95 247.573 141.816C241.443 145.729 233.304 145.891 227.954 140.525L225.829 142.643ZM208.728 112.038C210.355 118.156 216.02 132.805 225.829 142.643L227.954 140.525C218.662 131.207 213.185 117.122 211.628 111.267L208.728 112.038ZM196.431 119.023L210.756 113.036L209.6 110.268L195.274 116.255L196.431 119.023ZM177.945 146.676C185.916 146.676 190.81 141.508 193.629 135.486C196.437 129.489 197.352 122.37 197.352 117.639H194.352C194.352 122.087 193.477 128.736 190.912 134.213C188.36 139.665 184.3 143.676 177.945 143.676V146.676ZM158.542 111.541C158.222 115.819 158.212 124.416 160.611 132.009C161.813 135.813 163.652 139.472 166.46 142.193C169.305 144.95 173.075 146.676 177.945 146.676V143.676C173.861 143.676 170.838 142.258 168.548 140.039C166.222 137.785 164.587 134.634 163.472 131.105C161.237 124.031 161.227 115.866 161.534 111.764L158.542 111.541ZM191.426 75.8696C191.426 65.7236 195.269 55.4248 197.173 51.5932L194.487 50.2578C192.455 54.345 188.426 65.1101 188.426 75.8696H191.426ZM194.766 87.878C194.065 88.5839 193.496 89.0662 193.044 89.3709C192.574 89.6873 192.337 89.7381 192.283 89.7429C192.272 89.7439 192.306 89.7401 192.36 89.7598C192.413 89.7793 192.435 89.8033 192.427 89.7947C192.387 89.7546 192.249 89.5749 192.096 89.0844C191.791 88.1035 191.609 86.4988 191.517 84.1985C191.426 81.9337 191.426 79.1466 191.426 75.8696H188.426C188.426 79.1255 188.425 81.9806 188.519 84.3186C188.611 86.6211 188.798 88.5798 189.231 89.9745C189.448 90.6718 189.771 91.383 190.308 91.9183C190.905 92.5146 191.686 92.8082 192.55 92.731C193.326 92.6616 194.059 92.3041 194.719 91.8595C195.397 91.4033 196.12 90.772 196.894 89.9931L194.766 87.878ZM198.718 84.6774C197.627 85.4316 196.265 86.3703 194.766 87.878L196.894 89.9931C198.183 88.6962 199.347 87.8897 200.424 87.1454L198.718 84.6774ZM201.429 68.9398C202.334 75.7665 202.322 79.1685 201.788 81.1276C201.32 82.8459 200.466 83.4694 198.718 84.6774L200.424 87.1454C202.184 85.9292 203.904 84.7735 204.682 81.9161C205.395 79.2994 205.302 75.3291 204.403 68.5456L201.429 68.9398ZM197.173 51.5932C197.436 51.0658 197.643 50.7885 197.767 50.6662C197.886 50.5492 197.769 50.7219 197.461 50.6928C197.189 50.6671 197.153 50.5159 197.328 50.7289C197.492 50.9286 197.72 51.308 197.989 51.9501C199.082 54.5608 200.245 60.0107 201.429 68.9398L204.403 68.5456C203.224 59.6575 202.026 53.8231 200.757 50.7917C200.435 50.0233 200.073 49.3448 199.647 48.8253C199.231 48.3191 198.605 47.7874 197.742 47.7061C196.844 47.6213 196.136 48.0631 195.665 48.526C195.199 48.9838 194.815 49.5973 194.487 50.2578L197.173 51.5932Z" fill="black"/>
</svg>
